<?xml version="1.0" encoding="UTF-8" standalone="no"?>
<!DOCTYPE svg PUBLIC "-//W3C//DTD SVG 1.1//EN" "http://www.w3.org/Graphics/SVG/1.1/DTD/svg11.dtd">
<svg width="100%" height="100%" viewBox="0 0 1080 288" version="1.1" xmlns="http://www.w3.org/2000/svg" xmlns:xlink="http://www.w3.org/1999/xlink" xml:space="preserve" xmlns:serif="http://www.serif.com/" style="fill-rule:evenodd;clip-rule:evenodd;stroke-linejoin:round;stroke-miterlimit:2;">
    <g transform="matrix(1,0,0,1,-1180,-1532)">
        <g id="_250209-monoxide-logo" serif:id="250209-monoxide-logo" transform="matrix(1,0,0,0.266667,0,1532)">
            <rect x="1180" y="0" width="1080" height="1080" style="fill:none;"/>
            <g transform="matrix(1.206922,0,0,4.525958,1002.004196,-1904.01738)">
                <circle cx="337" cy="540" r="66" style="fill:rgb(145,145,145);"/>
            </g>
            <g transform="matrix(1.206922,0,0,4.525958,1109.420268,-1904.01738)">
                <circle cx="337" cy="540" r="66" style="fill:rgb(58,58,58);"/>
            </g>
            <g transform="matrix(1.214988,0,0,4.556207,-438.368492,-3542.850694)">
                <g transform="matrix(100,0,0,100,1572.251214,927.953332)">
                    <path d="M0.045,-0.644L0.228,-0.644L0.388,-0.317L0.547,-0.644L0.729,-0.644L0.729,-0L0.541,-0L0.541,-0.322L0.438,-0.11L0.337,-0.11L0.233,-0.322L0.233,-0L0.045,-0L0.045,-0.644Z" style="fill:rgb(246,247,247);fill-rule:nonzero;"/>
                </g>
            </g>
            <g transform="matrix(1,0,0,3.75,310.238364,-6353.587185)">
                <g transform="matrix(91.036415,0,0,91.036415,1370.443439,1826)">
                    <path d="M0.077,-0L0.077,-0.73L0.32,-0.73C0.369,-0.73 0.411,-0.721 0.448,-0.702C0.484,-0.683 0.512,-0.657 0.532,-0.624C0.552,-0.59 0.562,-0.55 0.562,-0.505C0.562,-0.46 0.552,-0.421 0.531,-0.387C0.511,-0.353 0.483,-0.327 0.447,-0.308C0.411,-0.289 0.369,-0.28 0.32,-0.28L0.202,-0.28L0.202,-0L0.077,-0ZM0.202,-0.393L0.32,-0.393C0.355,-0.393 0.383,-0.403 0.404,-0.423C0.425,-0.444 0.435,-0.471 0.435,-0.505C0.435,-0.54 0.425,-0.567 0.404,-0.587C0.383,-0.607 0.355,-0.617 0.32,-0.617L0.202,-0.617L0.202,-0.393Z" style="fill:rgb(46,46,46);fill-rule:nonzero;"/>
                </g>
                <g transform="matrix(91.036415,0,0,91.036415,1425.065288,1826)">
                    <path d="M0.076,-0L0.076,-0.73L0.307,-0.73C0.356,-0.73 0.398,-0.721 0.433,-0.703C0.469,-0.685 0.497,-0.66 0.517,-0.628C0.537,-0.595 0.547,-0.557 0.547,-0.513C0.547,-0.465 0.535,-0.423 0.511,-0.386C0.486,-0.349 0.453,-0.323 0.412,-0.308L0.557,-0L0.417,-0L0.29,-0.29L0.201,-0.29L0.201,-0L0.076,-0ZM0.201,-0.4L0.307,-0.4C0.342,-0.4 0.37,-0.41 0.39,-0.429C0.41,-0.448 0.42,-0.475 0.42,-0.509C0.42,-0.544 0.41,-0.571 0.39,-0.591C0.37,-0.61 0.342,-0.62 0.307,-0.62L0.201,-0.62L0.201,-0.4Z" style="fill:rgb(46,46,46);fill-rule:nonzero;"/>
                </g>
                <g transform="matrix(91.036415,0,0,91.036415,1479.687136,1826)">
                    <path d="M0.3,0.01C0.253,0.01 0.213,0.001 0.178,-0.017C0.144,-0.034 0.118,-0.059 0.1,-0.091C0.081,-0.124 0.072,-0.162 0.072,-0.206L0.072,-0.524C0.072,-0.568 0.081,-0.606 0.1,-0.639C0.118,-0.671 0.144,-0.696 0.178,-0.714C0.213,-0.731 0.253,-0.74 0.3,-0.74C0.347,-0.74 0.388,-0.731 0.422,-0.714C0.456,-0.696 0.482,-0.671 0.501,-0.639C0.519,-0.606 0.528,-0.568 0.528,-0.525L0.528,-0.206C0.528,-0.162 0.519,-0.124 0.501,-0.091C0.482,-0.059 0.456,-0.034 0.422,-0.017C0.388,0.001 0.347,0.01 0.3,0.01ZM0.3,-0.1C0.334,-0.1 0.36,-0.109 0.377,-0.128C0.394,-0.146 0.403,-0.172 0.403,-0.206L0.403,-0.524C0.403,-0.559 0.394,-0.585 0.377,-0.603C0.36,-0.621 0.334,-0.63 0.3,-0.63C0.266,-0.63 0.24,-0.621 0.223,-0.603C0.206,-0.585 0.197,-0.559 0.197,-0.524L0.197,-0.206C0.197,-0.172 0.206,-0.146 0.224,-0.128C0.241,-0.109 0.267,-0.1 0.3,-0.1Z" style="fill:rgb(46,46,46);fill-rule:nonzero;"/>
                </g>
                <g transform="matrix(91.036415,0,0,91.036415,1534.308985,1826)">
                    <path d="M0.27,0.011C0.196,0.011 0.137,-0.01 0.095,-0.051C0.051,-0.092 0.03,-0.147 0.03,-0.216L0.155,-0.216C0.155,-0.179 0.165,-0.151 0.186,-0.13C0.207,-0.109 0.235,-0.099 0.27,-0.099C0.305,-0.099 0.333,-0.109 0.354,-0.13C0.375,-0.15 0.385,-0.178 0.385,-0.215L0.385,-0.614L0.215,-0.614L0.215,-0.73L0.51,-0.73L0.51,-0.215C0.51,-0.145 0.488,-0.09 0.446,-0.05C0.403,-0.009 0.344,0.011 0.27,0.011Z" style="fill:rgb(46,46,46);fill-rule:nonzero;"/>
                </g>
                <g transform="matrix(91.036415,0,0,91.036415,1588.930834,1826)">
                    <path d="M0.088,-0L0.088,-0.73L0.526,-0.73L0.526,-0.621L0.211,-0.621L0.211,-0.431L0.491,-0.431L0.491,-0.323L0.211,-0.323L0.211,-0.109L0.526,-0.109L0.526,-0L0.088,-0Z" style="fill:rgb(46,46,46);fill-rule:nonzero;"/>
                </g>
                <g transform="matrix(91.036415,0,0,91.036415,1643.552683,1826)">
                    <path d="M0.304,0.01C0.257,0.01 0.216,0.001 0.181,-0.017C0.146,-0.034 0.12,-0.059 0.101,-0.091C0.082,-0.124 0.072,-0.162 0.072,-0.206L0.072,-0.524C0.072,-0.569 0.082,-0.607 0.101,-0.639C0.12,-0.671 0.146,-0.696 0.181,-0.714C0.216,-0.731 0.257,-0.74 0.304,-0.74C0.351,-0.74 0.392,-0.731 0.426,-0.714C0.461,-0.696 0.488,-0.671 0.507,-0.639C0.526,-0.607 0.536,-0.569 0.536,-0.524L0.41,-0.524C0.41,-0.559 0.401,-0.585 0.383,-0.603C0.364,-0.621 0.338,-0.63 0.304,-0.63C0.27,-0.63 0.244,-0.621 0.225,-0.603C0.206,-0.585 0.197,-0.559 0.197,-0.525L0.197,-0.206C0.197,-0.172 0.206,-0.146 0.225,-0.128C0.244,-0.109 0.27,-0.1 0.304,-0.1C0.338,-0.1 0.364,-0.109 0.383,-0.128C0.401,-0.146 0.41,-0.172 0.41,-0.206L0.536,-0.206C0.536,-0.163 0.526,-0.125 0.507,-0.092C0.488,-0.059 0.461,-0.034 0.426,-0.017C0.392,0.001 0.351,0.01 0.304,0.01Z" style="fill:rgb(46,46,46);fill-rule:nonzero;"/>
                </g>
                <g transform="matrix(91.036415,0,0,91.036415,1698.174531,1826)">
                    <path d="M0.237,-0L0.237,-0.614L0.046,-0.614L0.046,-0.73L0.554,-0.73L0.554,-0.614L0.363,-0.614L0.363,-0L0.237,-0Z" style="fill:rgb(46,46,46);fill-rule:nonzero;"/>
                </g>
                <g transform="matrix(91.036415,0,0,91.036415,1370.443439,1917.036415)">
                    <path d="M0.056,-0L0.056,-0.73L0.204,-0.73L0.275,-0.498C0.282,-0.475 0.288,-0.453 0.293,-0.434C0.298,-0.415 0.301,-0.401 0.302,-0.392C0.303,-0.401 0.306,-0.415 0.311,-0.434C0.316,-0.453 0.321,-0.475 0.328,-0.498L0.396,-0.73L0.544,-0.73L0.544,-0L0.427,-0L0.427,-0.227C0.427,-0.26 0.428,-0.297 0.43,-0.336C0.432,-0.375 0.434,-0.415 0.437,-0.454C0.44,-0.493 0.443,-0.531 0.447,-0.566C0.45,-0.601 0.453,-0.632 0.456,-0.659L0.358,-0.314L0.244,-0.314L0.143,-0.659C0.146,-0.634 0.15,-0.604 0.153,-0.57C0.156,-0.535 0.16,-0.498 0.163,-0.46C0.166,-0.421 0.168,-0.381 0.17,-0.341C0.172,-0.301 0.173,-0.263 0.173,-0.227L0.173,-0L0.056,-0Z" style="fill:rgb(46,46,46);fill-rule:nonzero;"/>
                </g>
                <g transform="matrix(91.036415,0,0,91.036415,1425.065288,1917.036415)">
                    <path d="M0.3,0.01C0.253,0.01 0.213,0.001 0.178,-0.017C0.144,-0.034 0.118,-0.059 0.1,-0.091C0.081,-0.124 0.072,-0.162 0.072,-0.206L0.072,-0.524C0.072,-0.568 0.081,-0.606 0.1,-0.639C0.118,-0.671 0.144,-0.696 0.178,-0.714C0.213,-0.731 0.253,-0.74 0.3,-0.74C0.347,-0.74 0.388,-0.731 0.422,-0.714C0.456,-0.696 0.482,-0.671 0.501,-0.639C0.519,-0.606 0.528,-0.568 0.528,-0.525L0.528,-0.206C0.528,-0.162 0.519,-0.124 0.501,-0.091C0.482,-0.059 0.456,-0.034 0.422,-0.017C0.388,0.001 0.347,0.01 0.3,0.01ZM0.3,-0.1C0.334,-0.1 0.36,-0.109 0.377,-0.128C0.394,-0.146 0.403,-0.172 0.403,-0.206L0.403,-0.524C0.403,-0.559 0.394,-0.585 0.377,-0.603C0.36,-0.621 0.334,-0.63 0.3,-0.63C0.266,-0.63 0.24,-0.621 0.223,-0.603C0.206,-0.585 0.197,-0.559 0.197,-0.524L0.197,-0.206C0.197,-0.172 0.206,-0.146 0.224,-0.128C0.241,-0.109 0.267,-0.1 0.3,-0.1Z" style="fill:rgb(46,46,46);fill-rule:nonzero;"/>
                </g>
                <g transform="matrix(91.036415,0,0,91.036415,1479.687136,1917.036415)">
                    <path d="M0.072,-0L0.072,-0.73L0.225,-0.73L0.428,-0.14C0.426,-0.161 0.424,-0.186 0.421,-0.215C0.419,-0.245 0.417,-0.274 0.416,-0.304C0.415,-0.335 0.414,-0.361 0.414,-0.384L0.414,-0.73L0.528,-0.73L0.528,-0L0.375,-0L0.174,-0.59C0.175,-0.571 0.177,-0.547 0.179,-0.52C0.181,-0.493 0.183,-0.465 0.184,-0.436C0.185,-0.407 0.186,-0.381 0.186,-0.357L0.186,-0L0.072,-0Z" style="fill:rgb(46,46,46);fill-rule:nonzero;"/>
                </g>
                <g transform="matrix(91.036415,0,0,91.036415,1534.308985,1917.036415)">
                    <path d="M0.3,0.01C0.253,0.01 0.213,0.001 0.178,-0.017C0.144,-0.034 0.118,-0.059 0.1,-0.091C0.081,-0.124 0.072,-0.162 0.072,-0.206L0.072,-0.524C0.072,-0.568 0.081,-0.606 0.1,-0.639C0.118,-0.671 0.144,-0.696 0.178,-0.714C0.213,-0.731 0.253,-0.74 0.3,-0.74C0.347,-0.74 0.388,-0.731 0.422,-0.714C0.456,-0.696 0.482,-0.671 0.501,-0.639C0.519,-0.606 0.528,-0.568 0.528,-0.525L0.528,-0.206C0.528,-0.162 0.519,-0.124 0.501,-0.091C0.482,-0.059 0.456,-0.034 0.422,-0.017C0.388,0.001 0.347,0.01 0.3,0.01ZM0.3,-0.1C0.334,-0.1 0.36,-0.109 0.377,-0.128C0.394,-0.146 0.403,-0.172 0.403,-0.206L0.403,-0.524C0.403,-0.559 0.394,-0.585 0.377,-0.603C0.36,-0.621 0.334,-0.63 0.3,-0.63C0.266,-0.63 0.24,-0.621 0.223,-0.603C0.206,-0.585 0.197,-0.559 0.197,-0.524L0.197,-0.206C0.197,-0.172 0.206,-0.146 0.224,-0.128C0.241,-0.109 0.267,-0.1 0.3,-0.1Z" style="fill:rgb(46,46,46);fill-rule:nonzero;"/>
                </g>
                <g transform="matrix(91.036415,0,0,91.036415,1588.930834,1917.036415)">
                    <path d="M0.028,-0L0.23,-0.374L0.04,-0.73L0.18,-0.73L0.272,-0.547C0.279,-0.534 0.285,-0.521 0.29,-0.509C0.295,-0.496 0.299,-0.487 0.302,-0.48C0.304,-0.487 0.308,-0.496 0.313,-0.509C0.318,-0.521 0.324,-0.534 0.331,-0.547L0.424,-0.73L0.56,-0.73L0.37,-0.377L0.572,-0L0.432,-0L0.329,-0.202C0.322,-0.215 0.316,-0.228 0.31,-0.241C0.305,-0.254 0.301,-0.264 0.298,-0.271C0.295,-0.264 0.291,-0.254 0.286,-0.241C0.281,-0.228 0.275,-0.215 0.268,-0.202L0.164,-0L0.028,-0Z" style="fill:rgb(46,46,46);fill-rule:nonzero;"/>
                </g>
                <g transform="matrix(91.036415,0,0,91.036415,1643.552683,1917.036415)">
                    <path d="M0.09,-0L0.09,-0.11L0.237,-0.11L0.237,-0.62L0.09,-0.62L0.09,-0.73L0.51,-0.73L0.51,-0.62L0.363,-0.62L0.363,-0.11L0.51,-0.11L0.51,-0L0.09,-0Z" style="fill:rgb(46,46,46);fill-rule:nonzero;"/>
                </g>
                <g transform="matrix(91.036415,0,0,91.036415,1698.174531,1917.036415)">
                    <path d="M0.075,-0L0.075,-0.73L0.292,-0.73C0.341,-0.73 0.384,-0.721 0.42,-0.702C0.457,-0.683 0.485,-0.657 0.505,-0.623C0.525,-0.589 0.535,-0.549 0.535,-0.502L0.535,-0.229C0.535,-0.183 0.525,-0.143 0.505,-0.108C0.485,-0.074 0.457,-0.048 0.42,-0.029C0.384,-0.009 0.341,-0 0.292,-0L0.075,-0ZM0.2,-0.115L0.292,-0.115C0.328,-0.115 0.357,-0.125 0.378,-0.145C0.399,-0.166 0.41,-0.194 0.41,-0.229L0.41,-0.502C0.41,-0.537 0.399,-0.564 0.378,-0.585C0.357,-0.605 0.328,-0.615 0.292,-0.615L0.2,-0.615L0.2,-0.115Z" style="fill:rgb(46,46,46);fill-rule:nonzero;"/>
                </g>
                <g transform="matrix(91.036415,0,0,91.036415,1752.79638,1917.036415)">
                    <path d="M0.088,-0L0.088,-0.73L0.526,-0.73L0.526,-0.621L0.211,-0.621L0.211,-0.431L0.491,-0.431L0.491,-0.323L0.211,-0.323L0.211,-0.109L0.526,-0.109L0.526,-0L0.088,-0Z" style="fill:rgb(46,46,46);fill-rule:nonzero;"/>
                </g>
            </g>
        </g>
    </g>
</svg>
