<svg xmlns="http://www.w3.org/2000/svg" viewBox="-0.2500 -1.0500 1.5000 1.5000">
  <path d="M 0.3720 -0.5269
C 0.3679 -0.5583
 0.3522 -0.5880
 0.3286 -0.6090
C 0.3049 -0.6300
 0.2734 -0.6422
 0.2418 -0.6416
C 0.2145 -0.6411
 0.1873 -0.6309
 0.1672 -0.6125
C 0.1471 -0.5941
 0.1346 -0.5676
 0.1332 -0.5404
C 0.1323 -0.5222
 0.1361 -0.5040
 0.1435 -0.4874
C 0.1509 -0.4708
 0.1618 -0.4560
 0.1746 -0.4431
C 0.2002 -0.4174
 0.2327 -0.3999
 0.2647 -0.3828
C 0.3069 -0.3604
 0.3494 -0.3367
 0.3819 -0.3017
C 0.4144 -0.2667
 0.4358 -0.2208
 0.4375 -0.1731
C 0.4392 -0.1238
 0.4195 -0.0741
 0.3842 -0.0395
C 0.3490 -0.0049
 0.2993 0.0141
 0.2500 0.0131
C 0.2008 0.0122
 0.1523 -0.0083
 0.1167 -0.0424
C 0.0812 -0.0765
 0.0589 -0.1240
 0.0552 -0.1731
L 0.1280 -0.1731
C 0.1321 -0.1417
 0.1478 -0.1120
 0.1714 -0.0910
C 0.1951 -0.0700
 0.2266 -0.0578
 0.2582 -0.0584
C 0.2855 -0.0589
 0.3127 -0.0691
 0.3328 -0.0875
C 0.3529 -0.1059
 0.3654 -0.1324
 0.3668 -0.1596
C 0.3677 -0.1778
 0.3639 -0.1960
 0.3565 -0.2126
C 0.3491 -0.2292
 0.3382 -0.2440
 0.3254 -0.2569
C 0.2998 -0.2826
 0.2673 -0.3001
 0.2353 -0.3172
C 0.1931 -0.3396
 0.1506 -0.3633
 0.1181 -0.3983
C 0.0856 -0.4333
 0.0642 -0.4792
 0.0625 -0.5269
C 0.0608 -0.5762
 0.0805 -0.6259
 0.1158 -0.6605
C 0.1510 -0.6951
 0.2007 -0.7141
 0.2500 -0.7131
C 0.2992 -0.7122
 0.3477 -0.6917
 0.3833 -0.6576
C 0.4188 -0.6235
 0.4411 -0.5760
 0.4448 -0.5269
L 0.3720 -0.5269
Z" fill="black" />
</svg>
