<svg xmlns="http://www.w3.org/2000/svg" viewBox="-0.2500 -1.0500 1.5000 1.5000">
  <path d="M 0.3653 -0.5269
C 0.3632 -0.5461
 0.3570 -0.5648
 0.3473 -0.5815
C 0.3372 -0.5987
 0.3232 -0.6138
 0.3063 -0.6244
C 0.2894 -0.6351
 0.2695 -0.6411
 0.2496 -0.6411
C 0.2298 -0.6411
 0.2101 -0.6352
 0.1933 -0.6245
C 0.1766 -0.6139
 0.1629 -0.5989
 0.1529 -0.5818
C 0.1385 -0.5573
 0.1314 -0.5290
 0.1282 -0.5008
C 0.1249 -0.4726
 0.1251 -0.4441
 0.1251 -0.4156
L 0.1251 -0.2844
C 0.1251 -0.2559
 0.1249 -0.2274
 0.1282 -0.1992
C 0.1314 -0.1710
 0.1384 -0.1427
 0.1529 -0.1182
C 0.1629 -0.1012
 0.1766 -0.0861
 0.1933 -0.0755
C 0.2101 -0.0649
 0.2298 -0.0589
 0.2496 -0.0589
C 0.2695 -0.0589
 0.2894 -0.0649
 0.3063 -0.0755
C 0.3232 -0.0862
 0.3372 -0.1012
 0.3473 -0.1185
C 0.3578 -0.1366
 0.3641 -0.1572
 0.3657 -0.1781
L 0.3655 -0.3500
L 0.4375 -0.3500
L 0.4375 -0.1731
C 0.4353 -0.1411
 0.4256 -0.1097
 0.4094 -0.0820
C 0.3930 -0.0541
 0.3698 -0.0301
 0.3422 -0.0133
C 0.3145 0.0035
 0.2824 0.0129
 0.2500 0.0131
C 0.2176 0.0133
 0.1852 0.0042
 0.1575 -0.0127
C 0.1298 -0.0296
 0.1069 -0.0540
 0.0906 -0.0820
C 0.0732 -0.1121
 0.0632 -0.1460
 0.0582 -0.1804
C 0.0532 -0.2148
 0.0531 -0.2496
 0.0531 -0.2844
L 0.0531 -0.4156
C 0.0531 -0.4504
 0.0532 -0.4852
 0.0582 -0.5196
C 0.0632 -0.5540
 0.0732 -0.5879
 0.0906 -0.6180
C 0.1069 -0.6460
 0.1298 -0.6704
 0.1575 -0.6873
C 0.1852 -0.7042
 0.2176 -0.7133
 0.2500 -0.7131
C 0.2824 -0.7129
 0.3145 -0.7035
 0.3422 -0.6867
C 0.3698 -0.6699
 0.3930 -0.6459
 0.4094 -0.6180
C 0.4256 -0.5903
 0.4353 -0.5589
 0.4375 -0.5269
L 0.3653 -0.5269
Z
M 0.2500 -0.3860
L 0.4375 -0.3860
L 0.4375 -0.3140
L 0.2500 -0.3140
L 0.2500 -0.3860
Z" fill="black" />
</svg>
