<svg xmlns="http://www.w3.org/2000/svg" viewBox="-0.2500 -1.0500 1.5000 1.5000">
  <path d="M 0.3634 -0.0000
L 0.3655 -0.3500
C 0.3656 -0.3651
 0.3652 -0.3803
 0.3613 -0.3949
C 0.3575 -0.4095
 0.3504 -0.4231
 0.3408 -0.4348
C 0.3300 -0.4482
 0.3160 -0.4590
 0.3003 -0.4661
C 0.2846 -0.4731
 0.2672 -0.4762
 0.2500 -0.4751
C 0.2329 -0.4741
 0.2162 -0.4688
 0.2012 -0.4604
C 0.1863 -0.4520
 0.1732 -0.4406
 0.1622 -0.4274
C 0.1485 -0.4111
 0.1380 -0.3920
 0.1315 -0.3717
L 0.0769 -0.3900
C 0.0859 -0.4168
 0.0997 -0.4419
 0.1176 -0.4638
C 0.1504 -0.5041
 0.1983 -0.5330
 0.2500 -0.5381
C 0.3027 -0.5433
 0.3573 -0.5227
 0.3934 -0.4840
C 0.4100 -0.4663
 0.4226 -0.4450
 0.4296 -0.4218
C 0.4366 -0.3987
 0.4375 -0.3742
 0.4375 -0.3500
L 0.4375 -0.0000
L 0.3634 -0.0000
Z
M 0.0625 -0.0000
L 0.0625 -0.7000
L 0.1345 -0.7000
L 0.1345 -0.0000
L 0.0625 -0.0000
Z" fill="black" />
</svg>
