<svg xmlns="http://www.w3.org/2000/svg" viewBox="-0.2500 -1.0500 1.5000 1.5000">
  <path d="M 0.3655 -0.5269
C 0.3666 -0.5571
 0.3546 -0.5876
 0.3332 -0.6089
C 0.3118 -0.6302
 0.2813 -0.6421
 0.2511 -0.6411
C 0.2311 -0.6405
 0.2113 -0.6344
 0.1943 -0.6239
C 0.1773 -0.6134
 0.1630 -0.5985
 0.1526 -0.5814
C 0.1379 -0.5571
 0.1309 -0.5289
 0.1278 -0.5007
C 0.1248 -0.4725
 0.1251 -0.4440
 0.1251 -0.4156
L 0.1251 -0.2844
C 0.1251 -0.2560
 0.1248 -0.2275
 0.1278 -0.1993
C 0.1309 -0.1711
 0.1379 -0.1429
 0.1526 -0.1186
C 0.1630 -0.1015
 0.1773 -0.0866
 0.1943 -0.0761
C 0.2113 -0.0656
 0.2311 -0.0595
 0.2511 -0.0589
C 0.2813 -0.0579
 0.3118 -0.0698
 0.3332 -0.0911
C 0.3546 -0.1124
 0.3666 -0.1429
 0.3655 -0.1731
L 0.4375 -0.1731
C 0.4379 -0.1240
 0.4177 -0.0751
 0.3829 -0.0405
C 0.3481 -0.0059
 0.2991 0.0139
 0.2500 0.0131
C 0.2177 0.0126
 0.1855 0.0033
 0.1578 -0.0134
C 0.1301 -0.0301
 0.1071 -0.0542
 0.0906 -0.0820
C 0.0730 -0.1120
 0.0630 -0.1459
 0.0581 -0.1803
C 0.0532 -0.2147
 0.0531 -0.2496
 0.0531 -0.2844
L 0.0531 -0.4156
C 0.0531 -0.4504
 0.0532 -0.4853
 0.0581 -0.5197
C 0.0630 -0.5541
 0.0730 -0.5880
 0.0906 -0.6180
C 0.1071 -0.6458
 0.1301 -0.6699
 0.1578 -0.6866
C 0.1855 -0.7033
 0.2177 -0.7126
 0.2500 -0.7131
C 0.2991 -0.7139
 0.3481 -0.6941
 0.3829 -0.6595
C 0.4177 -0.6249
 0.4379 -0.5760
 0.4375 -0.5269
L 0.3655 -0.5269
Z" fill="black" />
</svg>
