<svg xmlns="http://www.w3.org/2000/svg" viewBox="-0.2500 -1.0500 1.5000 1.5000">
  <path d="M 0.1366 -0.5250
L 0.1345 -0.1750
C 0.1344 -0.1599
 0.1348 -0.1447
 0.1387 -0.1301
C 0.1425 -0.1155
 0.1496 -0.1019
 0.1592 -0.0902
C 0.1700 -0.0768
 0.1840 -0.0660
 0.1997 -0.0589
C 0.2154 -0.0519
 0.2328 -0.0488
 0.2500 -0.0499
C 0.2671 -0.0509
 0.2838 -0.0562
 0.2988 -0.0646
C 0.3137 -0.0730
 0.3268 -0.0844
 0.3378 -0.0976
C 0.3515 -0.1139
 0.3620 -0.1330
 0.3685 -0.1533
L 0.4231 -0.1350
C 0.4141 -0.1082
 0.4003 -0.0831
 0.3824 -0.0612
C 0.3496 -0.0209
 0.3017 0.0080
 0.2500 0.0131
C 0.1973 0.0183
 0.1427 -0.0023
 0.1066 -0.0410
C 0.0900 -0.0587
 0.0774 -0.0800
 0.0704 -0.1032
C 0.0634 -0.1263
 0.0625 -0.1508
 0.0625 -0.1750
L 0.0625 -0.5250
L 0.1366 -0.5250
Z
M 0.4375 -0.5250
L 0.4375 -0.0000
L 0.3655 -0.0000
L 0.3655 -0.5250
L 0.4375 -0.5250
Z" fill="black" />
</svg>
