<svg xmlns="http://www.w3.org/2000/svg" viewBox="-0.2500 -1.0500 1.5000 1.5000">
  <path d="M 0.1251 -0.7000
L 0.1251 -0.2844
C 0.1251 -0.2560
 0.1249 -0.2275
 0.1281 -0.1993
C 0.1314 -0.1710
 0.1384 -0.1428
 0.1528 -0.1184
C 0.1629 -0.1012
 0.1767 -0.0861
 0.1935 -0.0755
C 0.2103 -0.0649
 0.2301 -0.0589
 0.2500 -0.0589
C 0.2699 -0.0589
 0.2897 -0.0649
 0.3065 -0.0755
C 0.3233 -0.0861
 0.3371 -0.1012
 0.3472 -0.1184
C 0.3616 -0.1428
 0.3686 -0.1710
 0.3719 -0.1993
C 0.3751 -0.2275
 0.3749 -0.2560
 0.3749 -0.2844
L 0.3749 -0.7000
L 0.4469 -0.7000
L 0.4469 -0.2844
C 0.4469 -0.2496
 0.4468 -0.2148
 0.4418 -0.1804
C 0.4369 -0.1460
 0.4269 -0.1120
 0.4094 -0.0820
C 0.3930 -0.0541
 0.3701 -0.0298
 0.3424 -0.0129
C 0.3147 0.0039
 0.2824 0.0131
 0.2500 0.0131
C 0.2176 0.0131
 0.1853 0.0039
 0.1576 -0.0129
C 0.1299 -0.0298
 0.1070 -0.0541
 0.0906 -0.0820
C 0.0731 -0.1120
 0.0631 -0.1460
 0.0582 -0.1804
C 0.0532 -0.2148
 0.0531 -0.2496
 0.0531 -0.2844
L 0.0531 -0.7000
L 0.1251 -0.7000
Z" fill="black" />
</svg>
