<svg xmlns="http://www.w3.org/2000/svg" viewBox="-0.2500 -1.0500 1.5000 1.5000">
  <path d="M 0.3746 -0.5441
C 0.3660 -0.5722
 0.3483 -0.5974
 0.3248 -0.6149
C 0.3013 -0.6324
 0.2719 -0.6422
 0.2426 -0.6415
C 0.2169 -0.6409
 0.1913 -0.6320
 0.1714 -0.6156
C 0.1516 -0.5992
 0.1380 -0.5754
 0.1343 -0.5500
C 0.1315 -0.5312
 0.1340 -0.5118
 0.1407 -0.4940
C 0.1474 -0.4762
 0.1582 -0.4602
 0.1713 -0.4464
C 0.1974 -0.4188
 0.2316 -0.4004
 0.2652 -0.3827
C 0.3099 -0.3590
 0.3551 -0.3336
 0.3882 -0.2953
C 0.4213 -0.2571
 0.4408 -0.2064
 0.4375 -0.1559
C 0.4345 -0.1095
 0.4124 -0.0648
 0.3777 -0.0340
C 0.3430 -0.0032
 0.2964 0.0136
 0.2500 0.0131
C 0.2029 0.0127
 0.1563 -0.0052
 0.1205 -0.0357
C 0.0847 -0.0663
 0.0599 -0.1095
 0.0514 -0.1559
L 0.1254 -0.1559
C 0.1340 -0.1278
 0.1517 -0.1026
 0.1752 -0.0851
C 0.1987 -0.0676
 0.2281 -0.0578
 0.2574 -0.0585
C 0.2831 -0.0591
 0.3087 -0.0680
 0.3286 -0.0844
C 0.3484 -0.1008
 0.3620 -0.1246
 0.3657 -0.1500
C 0.3685 -0.1688
 0.3660 -0.1882
 0.3593 -0.2060
C 0.3526 -0.2238
 0.3418 -0.2398
 0.3287 -0.2536
C 0.3026 -0.2812
 0.2684 -0.2996
 0.2348 -0.3173
C 0.1901 -0.3410
 0.1449 -0.3664
 0.1118 -0.4047
C 0.0787 -0.4429
 0.0592 -0.4936
 0.0625 -0.5441
C 0.0655 -0.5905
 0.0876 -0.6352
 0.1223 -0.6660
C 0.1570 -0.6968
 0.2036 -0.7136
 0.2500 -0.7131
C 0.2971 -0.7127
 0.3437 -0.6948
 0.3795 -0.6643
C 0.4153 -0.6337
 0.4401 -0.5905
 0.4486 -0.5441
L 0.3746 -0.5441
Z" fill="black" />
</svg>
