<svg xmlns="http://www.w3.org/2000/svg" viewBox="-0.2500 -1.0500 1.5000 1.5000">
  <path d="M 0.3720 -0.5269
C 0.3681 -0.5568
 0.3536 -0.5853
 0.3316 -0.6060
C 0.3096 -0.6266
 0.2802 -0.6394
 0.2500 -0.6407
C 0.2196 -0.6419
 0.1886 -0.6309
 0.1668 -0.6096
C 0.1450 -0.5884
 0.1335 -0.5572
 0.1358 -0.5269
C 0.1371 -0.5102
 0.1423 -0.4939
 0.1504 -0.4792
C 0.1585 -0.4645
 0.1694 -0.4515
 0.1817 -0.4401
C 0.2064 -0.4175
 0.2365 -0.4017
 0.2662 -0.3861
C 0.3089 -0.3637
 0.3517 -0.3397
 0.3840 -0.3039
C 0.4162 -0.2681
 0.4368 -0.2212
 0.4375 -0.1731
C 0.4382 -0.1240
 0.4182 -0.0749
 0.3832 -0.0404
C 0.3482 -0.0059
 0.2991 0.0135
 0.2500 0.0131
C 0.2006 0.0128
 0.1516 -0.0074
 0.1160 -0.0416
C 0.0803 -0.0758
 0.0582 -0.1237
 0.0552 -0.1731
L 0.1280 -0.1731
C 0.1319 -0.1432
 0.1464 -0.1147
 0.1684 -0.0940
C 0.1904 -0.0734
 0.2198 -0.0606
 0.2500 -0.0593
C 0.2804 -0.0581
 0.3114 -0.0691
 0.3332 -0.0904
C 0.3550 -0.1116
 0.3665 -0.1428
 0.3642 -0.1731
C 0.3629 -0.1898
 0.3577 -0.2061
 0.3496 -0.2208
C 0.3415 -0.2355
 0.3306 -0.2485
 0.3183 -0.2599
C 0.2936 -0.2825
 0.2635 -0.2983
 0.2338 -0.3139
C 0.1911 -0.3363
 0.1483 -0.3603
 0.1160 -0.3961
C 0.0838 -0.4319
 0.0632 -0.4788
 0.0625 -0.5269
C 0.0618 -0.5760
 0.0818 -0.6251
 0.1168 -0.6596
C 0.1518 -0.6941
 0.2009 -0.7135
 0.2500 -0.7131
C 0.2994 -0.7128
 0.3484 -0.6926
 0.3840 -0.6584
C 0.4197 -0.6242
 0.4418 -0.5763
 0.4448 -0.5269
L 0.3720 -0.5269
Z" fill="black" />
</svg>
