<svg xmlns="http://www.w3.org/2000/svg" viewBox="-0.2500 -1.0500 1.5000 1.5000">
  <path d="M 0.0985 -0.5250
L 0.1705 -0.5250
L 0.1705 -0.4262
C 0.1816 -0.4394
 0.1935 -0.4519
 0.2063 -0.4635
C 0.2317 -0.4864
 0.2606 -0.5058
 0.2921 -0.5191
C 0.3237 -0.5324
 0.3580 -0.5394
 0.3922 -0.5381
C 0.4148 -0.5373
 0.4373 -0.5328
 0.4585 -0.5250
L 0.4314 -0.4519
C 0.4183 -0.4582
 0.4040 -0.4623
 0.3895 -0.4639
C 0.3646 -0.4666
 0.3392 -0.4619
 0.3163 -0.4520
C 0.2934 -0.4421
 0.2728 -0.4272
 0.2546 -0.4101
C 0.2207 -0.3782
 0.1934 -0.3402
 0.1705 -0.2995
L 0.1705 -0.0000
L 0.0985 -0.0000
L 0.0985 -0.5250
Z" fill="black" />
</svg>
