<svg xmlns="http://www.w3.org/2000/svg" viewBox="-0.2500 -1.0500 1.5000 1.5000">
  <path d="M 0.3597 -0.0000
L 0.3619 -0.3500
C 0.3620 -0.3644
 0.3618 -0.3789
 0.3586 -0.3929
C 0.3554 -0.4069
 0.3491 -0.4204
 0.3395 -0.4310
C 0.3286 -0.4432
 0.3138 -0.4514
 0.2983 -0.4563
C 0.2827 -0.4612
 0.2663 -0.4629
 0.2500 -0.4625
C 0.2335 -0.4621
 0.2171 -0.4595
 0.2015 -0.4542
C 0.1859 -0.4490
 0.1710 -0.4410
 0.1591 -0.4296
C 0.1442 -0.4154
 0.1342 -0.3961
 0.1314 -0.3757
L 0.0625 -0.4102
C 0.0703 -0.4381
 0.0857 -0.4638
 0.1066 -0.4840
C 0.1442 -0.5204
 0.1977 -0.5378
 0.2500 -0.5381
C 0.2762 -0.5383
 0.3026 -0.5342
 0.3273 -0.5254
C 0.3520 -0.5165
 0.3751 -0.5027
 0.3934 -0.4840
C 0.4104 -0.4667
 0.4230 -0.4452
 0.4299 -0.4220
C 0.4367 -0.3987
 0.4375 -0.3742
 0.4375 -0.3500
L 0.4375 -0.0000
L 0.3597 -0.0000
Z
M 0.4375 -0.2494
C 0.3791 -0.2486
 0.3206 -0.2529
 0.2624 -0.2477
C 0.2309 -0.2450
 0.1986 -0.2378
 0.1733 -0.2188
C 0.1607 -0.2092
 0.1501 -0.1968
 0.1437 -0.1823
C 0.1372 -0.1678
 0.1351 -0.1515
 0.1380 -0.1359
C 0.1421 -0.1137
 0.1565 -0.0939
 0.1755 -0.0817
C 0.1946 -0.0696
 0.2175 -0.0646
 0.2401 -0.0640
C 0.2834 -0.0629
 0.3269 -0.0771
 0.3612 -0.1034
C 0.3955 -0.1298
 0.4203 -0.1682
 0.4303 -0.2103
L 0.4375 -0.2100
C 0.4355 -0.1592
 0.4153 -0.1093
 0.3814 -0.0714
C 0.3476 -0.0334
 0.3003 -0.0077
 0.2500 -0.0000
C 0.2074 0.0066
 0.1619 -0.0002
 0.1258 -0.0239
C 0.1078 -0.0357
 0.0924 -0.0515
 0.0814 -0.0700
C 0.0703 -0.0886
 0.0638 -0.1097
 0.0625 -0.1312
C 0.0610 -0.1552
 0.0660 -0.1794
 0.0762 -0.2011
C 0.0864 -0.2228
 0.1017 -0.2420
 0.1198 -0.2577
C 0.1561 -0.2891
 0.2028 -0.3063
 0.2500 -0.3150
C 0.3117 -0.3264
 0.3755 -0.3250
 0.4375 -0.3150
L 0.4375 -0.2494
Z" fill="black" />
</svg>
