<svg xmlns="http://www.w3.org/2000/svg" viewBox="-0.2500 -1.0500 1.5000 1.5000">
  <path d="M 0.1514 -0.1043
C 0.1615 -0.0883
 0.1770 -0.0761
 0.1945 -0.0688
C 0.2120 -0.0616
 0.2311 -0.0589
 0.2500 -0.0589
C 0.2689 -0.0589
 0.2880 -0.0616
 0.3055 -0.0688
C 0.3230 -0.0761
 0.3385 -0.0883
 0.3486 -0.1043
C 0.3571 -0.1177
 0.3616 -0.1334
 0.3636 -0.1492
C 0.3657 -0.1650
 0.3655 -0.1810
 0.3655 -0.1969
L 0.3655 -0.2231
C 0.3655 -0.2390
 0.3657 -0.2550
 0.3636 -0.2708
C 0.3616 -0.2866
 0.3571 -0.3023
 0.3486 -0.3157
C 0.3385 -0.3317
 0.3230 -0.3439
 0.3055 -0.3512
C 0.2880 -0.3584
 0.2689 -0.3611
 0.2500 -0.3611
C 0.2311 -0.3611
 0.2120 -0.3584
 0.1945 -0.3512
C 0.1770 -0.3439
 0.1615 -0.3317
 0.1514 -0.3157
C 0.1429 -0.3023
 0.1384 -0.2866
 0.1364 -0.2708
C 0.1343 -0.2550
 0.1345 -0.2390
 0.1345 -0.2231
L 0.1345 -0.1969
C 0.1345 -0.1810
 0.1343 -0.1650
 0.1364 -0.1492
C 0.1384 -0.1334
 0.1429 -0.1177
 0.1514 -0.1043
Z
M 0.0625 -0.1969
L 0.0625 -0.2231
C 0.0625 -0.2458
 0.0627 -0.2687
 0.0667 -0.2910
C 0.0707 -0.3134
 0.0784 -0.3352
 0.0906 -0.3544
C 0.1072 -0.3805
 0.1319 -0.4011
 0.1599 -0.4142
C 0.1880 -0.4272
 0.2191 -0.4331
 0.2500 -0.4331
C 0.2809 -0.4331
 0.3120 -0.4272
 0.3401 -0.4142
C 0.3681 -0.4011
 0.3928 -0.3805
 0.4094 -0.3544
C 0.4216 -0.3352
 0.4293 -0.3134
 0.4333 -0.2910
C 0.4373 -0.2687
 0.4375 -0.2458
 0.4375 -0.2231
L 0.4375 -0.1969
C 0.4375 -0.1742
 0.4373 -0.1513
 0.4333 -0.1290
C 0.4293 -0.1066
 0.4216 -0.0848
 0.4094 -0.0656
C 0.3928 -0.0395
 0.3681 -0.0189
 0.3401 -0.0058
C 0.3120 0.0072
 0.2809 0.0131
 0.2500 0.0131
C 0.2191 0.0131
 0.1880 0.0072
 0.1599 -0.0058
C 0.1319 -0.0189
 0.1072 -0.0395
 0.0906 -0.0656
C 0.0784 -0.0848
 0.0707 -0.1066
 0.0667 -0.1290
C 0.0627 -0.1513
 0.0625 -0.1742
 0.0625 -0.1969
Z
M 0.3284 -0.7000
L 0.1517 -0.3490
C 0.1372 -0.3489
 0.1228 -0.3448
 0.1103 -0.3375
C 0.0977 -0.3301
 0.0872 -0.3195
 0.0796 -0.3072
C 0.0720 -0.2948
 0.0674 -0.2808
 0.0650 -0.2665
C 0.0626 -0.2522
 0.0625 -0.2376
 0.0625 -0.2231
L 0.0625 -0.1969
L 0.0625 -0.1969
L 0.0625 -0.2231
C 0.0625 -0.2791
 0.0676 -0.3362
 0.0906 -0.3872
L 0.2436 -0.7000
L 0.3284 -0.7000
Z" fill="black" />
</svg>
