<svg xmlns="http://www.w3.org/2000/svg" viewBox="-0.2500 -1.0500 1.5000 1.5000">
  <path d="M 0.3486 -0.5957
C 0.3385 -0.6117
 0.3230 -0.6239
 0.3055 -0.6312
C 0.2880 -0.6384
 0.2689 -0.6411
 0.2500 -0.6411
C 0.2311 -0.6411
 0.2120 -0.6384
 0.1945 -0.6312
C 0.1770 -0.6239
 0.1615 -0.6117
 0.1514 -0.5957
C 0.1429 -0.5823
 0.1384 -0.5666
 0.1364 -0.5508
C 0.1343 -0.5350
 0.1345 -0.5190
 0.1345 -0.5031
L 0.1345 -0.4769
C 0.1345 -0.4610
 0.1343 -0.4450
 0.1364 -0.4292
C 0.1384 -0.4134
 0.1429 -0.3977
 0.1514 -0.3843
C 0.1615 -0.3683
 0.1770 -0.3561
 0.1945 -0.3488
C 0.2120 -0.3416
 0.2311 -0.3389
 0.2500 -0.3389
C 0.2689 -0.3389
 0.2880 -0.3416
 0.3055 -0.3488
C 0.3230 -0.3561
 0.3385 -0.3683
 0.3486 -0.3843
C 0.3571 -0.3977
 0.3616 -0.4134
 0.3636 -0.4292
C 0.3657 -0.4450
 0.3655 -0.4610
 0.3655 -0.4769
L 0.3655 -0.5031
C 0.3655 -0.5190
 0.3657 -0.5350
 0.3636 -0.5508
C 0.3616 -0.5666
 0.3571 -0.5823
 0.3486 -0.5957
Z
M 0.4375 -0.5031
L 0.4375 -0.4769
C 0.4375 -0.4542
 0.4373 -0.4313
 0.4333 -0.4090
C 0.4293 -0.3866
 0.4216 -0.3648
 0.4094 -0.3456
C 0.3928 -0.3195
 0.3681 -0.2989
 0.3401 -0.2858
C 0.3120 -0.2728
 0.2809 -0.2669
 0.2500 -0.2669
C 0.2191 -0.2669
 0.1880 -0.2728
 0.1599 -0.2858
C 0.1319 -0.2989
 0.1072 -0.3195
 0.0906 -0.3456
C 0.0784 -0.3648
 0.0707 -0.3866
 0.0667 -0.4090
C 0.0627 -0.4313
 0.0625 -0.4542
 0.0625 -0.4769
L 0.0625 -0.5031
C 0.0625 -0.5258
 0.0627 -0.5487
 0.0667 -0.5710
C 0.0707 -0.5934
 0.0784 -0.6152
 0.0906 -0.6344
C 0.1072 -0.6605
 0.1319 -0.6811
 0.1599 -0.6942
C 0.1880 -0.7072
 0.2191 -0.7131
 0.2500 -0.7131
C 0.2809 -0.7131
 0.3120 -0.7072
 0.3401 -0.6942
C 0.3681 -0.6811
 0.3928 -0.6605
 0.4094 -0.6344
C 0.4216 -0.6152
 0.4293 -0.5934
 0.4333 -0.5710
C 0.4373 -0.5487
 0.4375 -0.5258
 0.4375 -0.5031
Z
M 0.1716 -0.0000
L 0.3483 -0.3510
C 0.3628 -0.3511
 0.3772 -0.3552
 0.3897 -0.3625
C 0.4023 -0.3699
 0.4128 -0.3805
 0.4204 -0.3928
C 0.4280 -0.4052
 0.4326 -0.4192
 0.4350 -0.4335
C 0.4374 -0.4478
 0.4375 -0.4624
 0.4375 -0.4769
L 0.4375 -0.5031
L 0.4375 -0.5031
L 0.4375 -0.4769
C 0.4375 -0.4209
 0.4324 -0.3638
 0.4094 -0.3128
L 0.2564 -0.0000
L 0.1716 -0.0000
Z" fill="black" />
</svg>
