<svg xmlns="http://www.w3.org/2000/svg" viewBox="-0.2500 -1.0500 1.5000 1.5000">
  <path d="M 0.1272 -0.1622
C 0.1292 -0.1288
 0.1458 -0.0965
 0.1719 -0.0756
C 0.1980 -0.0547
 0.2333 -0.0456
 0.2662 -0.0516
C 0.2836 -0.0549
 0.3002 -0.0622
 0.3142 -0.0730
C 0.3282 -0.0838
 0.3396 -0.0980
 0.3475 -0.1138
C 0.3575 -0.1339
 0.3620 -0.1564
 0.3639 -0.1787
C 0.3658 -0.2011
 0.3655 -0.2236
 0.3655 -0.2461
L 0.3655 -0.2789
C 0.3655 -0.3014
 0.3658 -0.3239
 0.3639 -0.3463
C 0.3620 -0.3686
 0.3575 -0.3911
 0.3475 -0.4112
C 0.3396 -0.4270
 0.3282 -0.4412
 0.3142 -0.4520
C 0.3002 -0.4628
 0.2836 -0.4701
 0.2662 -0.4734
C 0.2333 -0.4794
 0.1980 -0.4703
 0.1719 -0.4494
C 0.1458 -0.4285
 0.1292 -0.3962
 0.1272 -0.3628
L 0.0985 -0.3609
C 0.0955 -0.4068
 0.1124 -0.4537
 0.1442 -0.4870
C 0.1759 -0.5202
 0.2220 -0.5394
 0.2680 -0.5381
C 0.2983 -0.5373
 0.3282 -0.5277
 0.3534 -0.5109
C 0.3786 -0.4941
 0.3987 -0.4701
 0.4121 -0.4430
C 0.4244 -0.4179
 0.4311 -0.3903
 0.4343 -0.3626
C 0.4375 -0.3348
 0.4375 -0.3068
 0.4375 -0.2789
L 0.4375 -0.2461
C 0.4375 -0.2182
 0.4375 -0.1902
 0.4343 -0.1624
C 0.4311 -0.1347
 0.4244 -0.1071
 0.4121 -0.0820
C 0.3987 -0.0549
 0.3786 -0.0309
 0.3534 -0.0141
C 0.3282 0.0027
 0.2983 0.0123
 0.2680 0.0131
C 0.2220 0.0144
 0.1759 -0.0048
 0.1442 -0.0380
C 0.1124 -0.0713
 0.0955 -0.1182
 0.0985 -0.1641
L 0.1272 -0.1622
Z
M 0.1345 -0.5250
L 0.1345 0.2000
L 0.0625 0.2000
L 0.0625 -0.5250
L 0.1345 -0.5250
Z" fill="black" />
</svg>
