<svg xmlns="http://www.w3.org/2000/svg" viewBox="-0.2500 -1.0500 1.5000 1.5000">
  <path d="M 0.0625 -0.7000
L 0.1875 -0.7000
C 0.2304 -0.7000
 0.2742 -0.6990
 0.3144 -0.6840
C 0.3546 -0.6690
 0.3893 -0.6394
 0.4094 -0.6016
C 0.4242 -0.5736
 0.4315 -0.5421
 0.4347 -0.5106
C 0.4378 -0.4791
 0.4375 -0.4473
 0.4375 -0.4156
L 0.4375 -0.2844
C 0.4375 -0.2527
 0.4378 -0.2209
 0.4347 -0.1894
C 0.4315 -0.1579
 0.4242 -0.1264
 0.4094 -0.0984
C 0.3893 -0.0606
 0.3546 -0.0310
 0.3144 -0.0160
C 0.2742 -0.0010
 0.2304 0.0000
 0.1875 -0.0000
L 0.0625 -0.0000
L 0.0625 -0.0720
L 0.1875 -0.0720
C 0.2172 -0.0720
 0.2475 -0.0719
 0.2760 -0.0802
C 0.2903 -0.0843
 0.3040 -0.0906
 0.3160 -0.0994
C 0.3280 -0.1082
 0.3382 -0.1194
 0.3458 -0.1322
C 0.3590 -0.1545
 0.3638 -0.1808
 0.3651 -0.2067
C 0.3664 -0.2325
 0.3655 -0.2585
 0.3655 -0.2844
L 0.3655 -0.4156
C 0.3655 -0.4415
 0.3664 -0.4675
 0.3651 -0.4933
C 0.3638 -0.5192
 0.3590 -0.5455
 0.3458 -0.5678
C 0.3382 -0.5806
 0.3280 -0.5918
 0.3160 -0.6006
C 0.3040 -0.6094
 0.2903 -0.6157
 0.2760 -0.6198
C 0.2475 -0.6281
 0.2172 -0.6280
 0.1875 -0.6280
L 0.0625 -0.6280
L 0.0625 -0.7000
Z
M 0.0625 -0.0000
L 0.0625 -0.7000
L 0.1345 -0.7000
L 0.1345 -0.0000
L 0.0625 -0.0000
Z" fill="black" />
</svg>
