<svg xmlns="http://www.w3.org/2000/svg" viewBox="-0.2500 -1.0500 1.5000 1.5000">
  <path d="M 0.3468 -0.3650
L 0.3468 -0.4300
C 0.3174 -0.4484
 0.2844 -0.4618
 0.2500 -0.4658
C 0.2326 -0.4678
 0.2146 -0.4671
 0.1979 -0.4618
C 0.1812 -0.4566
 0.1658 -0.4464
 0.1557 -0.4320
C 0.1457 -0.4179
 0.1413 -0.4000
 0.1434 -0.3829
C 0.1456 -0.3657
 0.1541 -0.3496
 0.1661 -0.3372
C 0.1781 -0.3248
 0.1933 -0.3158
 0.2094 -0.3094
C 0.2255 -0.3031
 0.2424 -0.2991
 0.2593 -0.2954
C 0.2866 -0.2895
 0.3144 -0.2840
 0.3401 -0.2730
C 0.3659 -0.2620
 0.3895 -0.2453
 0.4064 -0.2229
C 0.4233 -0.2006
 0.4330 -0.1728
 0.4334 -0.1448
C 0.4338 -0.1168
 0.4249 -0.0889
 0.4094 -0.0656
C 0.3923 -0.0400
 0.3674 -0.0200
 0.3395 -0.0069
C 0.3116 0.0063
 0.2808 0.0128
 0.2500 0.0131
C 0.2195 0.0135
 0.1888 0.0077
 0.1610 -0.0048
C 0.1331 -0.0172
 0.1082 -0.0366
 0.0906 -0.0615
C 0.0737 -0.0854
 0.0637 -0.1143
 0.0625 -0.1436
L 0.1345 -0.1436
C 0.1356 -0.1295
 0.1406 -0.1157
 0.1487 -0.1042
C 0.1596 -0.0884
 0.1760 -0.0769
 0.1938 -0.0698
C 0.2116 -0.0627
 0.2308 -0.0595
 0.2500 -0.0589
C 0.2677 -0.0584
 0.2856 -0.0601
 0.3024 -0.0657
C 0.3192 -0.0713
 0.3348 -0.0812
 0.3454 -0.0954
C 0.3558 -0.1094
 0.3608 -0.1273
 0.3589 -0.1447
C 0.3570 -0.1620
 0.3484 -0.1783
 0.3360 -0.1907
C 0.3237 -0.2030
 0.3080 -0.2116
 0.2916 -0.2174
C 0.2751 -0.2232
 0.2579 -0.2265
 0.2407 -0.2296
C 0.2130 -0.2345
 0.1849 -0.2393
 0.1588 -0.2501
C 0.1328 -0.2609
 0.1089 -0.2779
 0.0922 -0.3006
C 0.0755 -0.3233
 0.0662 -0.3514
 0.0661 -0.3796
C 0.0660 -0.4079
 0.0750 -0.4359
 0.0906 -0.4594
C 0.1077 -0.4851
 0.1323 -0.5055
 0.1602 -0.5188
C 0.1881 -0.5321
 0.2191 -0.5384
 0.2500 -0.5381
C 0.3132 -0.5376
 0.3754 -0.5094
 0.4188 -0.4635
L 0.4188 -0.3650
L 0.3468 -0.3650
Z" fill="black" />
</svg>
