<svg xmlns="http://www.w3.org/2000/svg" viewBox="-0.25000 -1.05000 1.50000 1.50000">
  <path d="M 0.36550 -0.26250
L 0.36550 -0.27891
C 0.36550 -0.30173
 0.36654 -0.32456
 0.36629 -0.34738
C 0.36605 -0.37021
 0.36338 -0.39361
 0.35289 -0.41388
C 0.34382 -0.43140
 0.32902 -0.44584
 0.31138 -0.45468
C 0.29374 -0.46353
 0.27368 -0.46706
 0.25397 -0.46623
C 0.23381 -0.46539
 0.21379 -0.46004
 0.19619 -0.45019
C 0.17859 -0.44033
 0.16367 -0.42571
 0.15367 -0.40819
C 0.14274 -0.38905
 0.13785 -0.36698
 0.13595 -0.34502
C 0.13405 -0.32305
 0.13450 -0.30095
 0.13450 -0.27891
L 0.13450 -0.24609
C 0.13450 -0.22401
 0.13407 -0.20188
 0.13600 -0.17989
C 0.13793 -0.15789
 0.14283 -0.13579
 0.15377 -0.11662
C 0.16381 -0.09905
 0.17883 -0.08440
 0.19656 -0.07467
C 0.21430 -0.06493
 0.23442 -0.05997
 0.25462 -0.05873
C 0.30456 -0.05565
 0.35459 -0.07297
 0.39580 -0.10135
L 0.43750 -0.04266
C 0.38332 -0.00416
 0.31632 0.01739
 0.25000 0.01312
C 0.21774 0.01105
 0.18567 0.00251
 0.15765 -0.01363
C 0.12964 -0.02977
 0.10616 -0.05367
 0.09063 -0.08203
C 0.07714 -0.10665
 0.06964 -0.13421
 0.06605 -0.16204
C 0.06245 -0.18987
 0.06250 -0.21803
 0.06250 -0.24609
L 0.06250 -0.27891
C 0.06250 -0.30697
 0.06243 -0.33514
 0.06599 -0.36298
C 0.06956 -0.39082
 0.07707 -0.41839
 0.09063 -0.44297
C 0.10623 -0.47126
 0.12981 -0.49503
 0.15778 -0.51121
C 0.18575 -0.52739
 0.21773 -0.53635
 0.25000 -0.53812
C 0.28438 -0.54002
 0.31955 -0.53365
 0.34990 -0.51739
C 0.38025 -0.50112
 0.40484 -0.47447
 0.41875 -0.44297
C 0.42995 -0.41760
 0.43451 -0.38976
 0.43625 -0.36208
C 0.43799 -0.33440
 0.43750 -0.30664
 0.43750 -0.27891
L 0.43750 -0.26250
L 0.36550 -0.26250
Z
M 0.06250 -0.29850
L 0.43750 -0.29850
L 0.43750 -0.22650
L 0.06250 -0.22650
L 0.06250 -0.29850
Z" fill="black" />
</svg>
