<svg xmlns="http://www.w3.org/2000/svg" viewBox="-0.2500 -1.0500 1.5000 1.5000">
  <path d="M 0.2192 -0.0000
L 0.1420 -0.0000
L 0.1420 -0.5250
C 0.1420 -0.5489
 0.1426 -0.5730
 0.1486 -0.5962
C 0.1546 -0.6193
 0.1658 -0.6411
 0.1817 -0.6590
C 0.1976 -0.6770
 0.2180 -0.6908
 0.2403 -0.6999
C 0.2626 -0.7090
 0.2867 -0.7133
 0.3108 -0.7131
C 0.3587 -0.7127
 0.4069 -0.6938
 0.4398 -0.6590
C 0.4593 -0.6385
 0.4731 -0.6127
 0.4795 -0.5852
L 0.4099 -0.5504
C 0.4088 -0.5714
 0.3997 -0.5919
 0.3850 -0.6070
C 0.3658 -0.6266
 0.3382 -0.6368
 0.3108 -0.6375
C 0.2973 -0.6379
 0.2837 -0.6360
 0.2711 -0.6313
C 0.2585 -0.6266
 0.2468 -0.6191
 0.2382 -0.6088
C 0.2287 -0.5975
 0.2231 -0.5834
 0.2204 -0.5690
C 0.2176 -0.5545
 0.2176 -0.5397
 0.2176 -0.5250
L 0.2192 -0.0000
Z
M 0.0468 -0.4602
L 0.4280 -0.4602
L 0.4280 -0.3882
L 0.0468 -0.3882
L 0.0468 -0.4602
Z" fill="black" />
</svg>
