<svg xmlns="http://www.w3.org/2000/svg" viewBox="-0.2500 -1.0500 1.5000 1.5000">
  <path d="M 0.0625 -0.7000
L 0.1875 -0.7000
C 0.2083 -0.7000
 0.2292 -0.7007
 0.2500 -0.7000
C 0.2830 -0.6989
 0.3165 -0.6920
 0.3447 -0.6749
C 0.3729 -0.6577
 0.3950 -0.6313
 0.4094 -0.6016
C 0.4369 -0.5446
 0.4375 -0.4789
 0.4375 -0.4156
L 0.4375 -0.2844
C 0.4375 -0.2527
 0.4378 -0.2209
 0.4347 -0.1894
C 0.4315 -0.1579
 0.4242 -0.1264
 0.4094 -0.0984
C 0.3893 -0.0606
 0.3546 -0.0310
 0.3144 -0.0160
C 0.2742 -0.0010
 0.2304 0.0000
 0.1875 -0.0000
L 0.0625 -0.0000
L 0.0625 -0.0720
L 0.1875 -0.0720
C 0.2172 -0.0720
 0.2475 -0.0719
 0.2760 -0.0802
C 0.2903 -0.0843
 0.3040 -0.0906
 0.3160 -0.0994
C 0.3280 -0.1082
 0.3382 -0.1194
 0.3458 -0.1322
C 0.3590 -0.1545
 0.3638 -0.1808
 0.3651 -0.2067
C 0.3664 -0.2325
 0.3655 -0.2585
 0.3655 -0.2844
L 0.3655 -0.4156
C 0.3655 -0.4419
 0.3660 -0.4682
 0.3641 -0.4944
C 0.3622 -0.5207
 0.3572 -0.5472
 0.3446 -0.5702
C 0.3351 -0.5875
 0.3212 -0.6024
 0.3041 -0.6124
C 0.2871 -0.6223
 0.2673 -0.6269
 0.2477 -0.6280
C 0.2276 -0.6292
 0.2076 -0.6280
 0.1875 -0.6280
L 0.0625 -0.6280
L 0.0625 -0.7000
Z
M 0.0625 -0.0000
L 0.0625 -0.7000
L 0.1345 -0.7000
L 0.1345 -0.0000
L 0.0625 -0.0000
Z" fill="black" />
</svg>
