<svg xmlns="http://www.w3.org/2000/svg" viewBox="-0.25000 -1.05000 1.50000 1.50000">
  <path d="M 0.36550 -0.31172
L 0.36550 -0.41954
C 0.33588 -0.44965
 0.29372 -0.46774
 0.25152 -0.46614
C 0.23182 -0.46540
 0.21220 -0.46026
 0.19511 -0.45044
C 0.17803 -0.44063
 0.16373 -0.42607
 0.15406 -0.40890
C 0.14317 -0.38959
 0.13820 -0.36745
 0.13616 -0.34537
C 0.13413 -0.32329
 0.13450 -0.30108
 0.13450 -0.27891
L 0.13450 -0.24609
C 0.13450 -0.22401
 0.13407 -0.20188
 0.13600 -0.17989
C 0.13793 -0.15789
 0.14283 -0.13579
 0.15377 -0.11662
C 0.16381 -0.09905
 0.17883 -0.08440
 0.19656 -0.07467
C 0.21430 -0.06493
 0.23442 -0.05997
 0.25462 -0.05873
C 0.30456 -0.05565
 0.35459 -0.07297
 0.39580 -0.10135
L 0.43750 -0.04266
C 0.38332 -0.00416
 0.31632 0.01739
 0.25000 0.01312
C 0.21774 0.01105
 0.18567 0.00251
 0.15765 -0.01363
C 0.12964 -0.02977
 0.10616 -0.05367
 0.09063 -0.08203
C 0.07714 -0.10665
 0.06964 -0.13421
 0.06605 -0.16204
C 0.06245 -0.18987
 0.06250 -0.21803
 0.06250 -0.24609
L 0.06250 -0.27891
C 0.06250 -0.30696
 0.06252 -0.33511
 0.06618 -0.36292
C 0.06985 -0.39074
 0.07735 -0.41825
 0.09063 -0.44297
C 0.10599 -0.47157
 0.12914 -0.49600
 0.15713 -0.51246
C 0.18512 -0.52892
 0.21754 -0.53744
 0.25000 -0.53812
C 0.28641 -0.53889
 0.32287 -0.53000
 0.35528 -0.51339
C 0.38768 -0.49678
 0.41607 -0.47241
 0.43750 -0.44297
L 0.43750 -0.31172
L 0.36550 -0.31172
Z" fill="black" />
</svg>
