<svg xmlns="http://www.w3.org/2000/svg" viewBox="-0.2500 -1.0500 1.5000 1.5000">
  <path d="M 0.0906 -0.5250
L 0.2500 -0.5250
L 0.2500 -0.4530
L 0.0906 -0.4530
L 0.0906 -0.5250
Z
M 0.2140 -0.0000
L 0.2140 -0.5250
L 0.2860 -0.5250
L 0.2860 -0.0000
L 0.2140 -0.0000
Z
M 0.0625 -0.0720
L 0.4375 -0.0720
L 0.4375 -0.0000
L 0.0625 -0.0000
L 0.0625 -0.0720
Z
M 0.1769 -0.6790
C 0.1769 -0.6613
 0.1841 -0.6438
 0.1966 -0.6313
C 0.2091 -0.6188
 0.2267 -0.6115
 0.2444 -0.6115
C 0.2620 -0.6115
 0.2796 -0.6188
 0.2921 -0.6313
C 0.3046 -0.6438
 0.3119 -0.6613
 0.3119 -0.6790
C 0.3119 -0.6967
 0.3046 -0.7142
 0.2921 -0.7267
C 0.2796 -0.7392
 0.2620 -0.7465
 0.2444 -0.7465
C 0.2267 -0.7465
 0.2091 -0.7392
 0.1966 -0.7267
C 0.1841 -0.7142
 0.1769 -0.6967
 0.1769 -0.6790
Z" fill="black" />
</svg>
