<svg xmlns="http://www.w3.org/2000/svg" viewBox="-0.25000 -1.05000 1.50000 1.50000">
  <path d="M 0.35968 -0.00000
L 0.36190 -0.35000
C 0.36199 -0.36438
 0.36185 -0.37889
 0.35862 -0.39291
C 0.35539 -0.40692
 0.34909 -0.42036
 0.33947 -0.43104
C 0.32856 -0.44315
 0.31382 -0.45140
 0.29827 -0.45629
C 0.28273 -0.46118
 0.26629 -0.46294
 0.25000 -0.46252
C 0.23354 -0.46211
 0.21709 -0.45949
 0.20148 -0.45425
C 0.18587 -0.44900
 0.17104 -0.44098
 0.15911 -0.42963
C 0.14419 -0.41544
 0.13424 -0.39612
 0.13136 -0.37573
L 0.06250 -0.41016
C 0.07034 -0.43807
 0.08572 -0.46383
 0.10656 -0.48398
C 0.14419 -0.52036
 0.19766 -0.53777
 0.25000 -0.53812
C 0.27624 -0.53830
 0.30257 -0.53424
 0.32727 -0.52538
C 0.35197 -0.51652
 0.37506 -0.50271
 0.39344 -0.48398
C 0.41040 -0.46670
 0.42300 -0.44519
 0.42986 -0.42197
C 0.43673 -0.39874
 0.43750 -0.37422
 0.43750 -0.35000
L 0.43750 -0.00000
L 0.35968 -0.00000
Z
M 0.43750 -0.24936
C 0.37914 -0.24865
 0.32059 -0.25287
 0.26245 -0.24774
C 0.23091 -0.24496
 0.19860 -0.23780
 0.17331 -0.21876
C 0.16066 -0.20924
 0.15010 -0.19678
 0.14366 -0.18231
C 0.13723 -0.16785
 0.13509 -0.15146
 0.13796 -0.13589
C 0.14206 -0.11366
 0.15649 -0.09392
 0.17554 -0.08174
C 0.19459 -0.06957
 0.21754 -0.06464
 0.24014 -0.06405
C 0.28338 -0.06290
 0.32688 -0.07705
 0.36117 -0.10342
C 0.39546 -0.12979
 0.42031 -0.16820
 0.43031 -0.21029
L 0.43750 -0.21000
C 0.43548 -0.15919
 0.41530 -0.10929
 0.38143 -0.07135
C 0.34757 -0.03342
 0.30026 -0.00774
 0.25000 -0.00000
C 0.20739 0.00656
 0.16189 -0.00022
 0.12584 -0.02386
C 0.10781 -0.03567
 0.09237 -0.05150
 0.08136 -0.07003
C 0.07035 -0.08856
 0.06382 -0.10974
 0.06250 -0.13125
C 0.06103 -0.15519
 0.06601 -0.17941
 0.07620 -0.20113
C 0.08638 -0.22284
 0.10165 -0.24202
 0.11981 -0.25770
C 0.15611 -0.28906
 0.20283 -0.30627
 0.25000 -0.31500
C 0.31175 -0.32643
 0.37551 -0.32502
 0.43750 -0.31500
L 0.43750 -0.24936
Z" fill="black" />
</svg>
