<svg xmlns="http://www.w3.org/2000/svg" viewBox="-0.25000 -1.05000 1.50000 1.50000">
  <path d="M 0.25000 -0.45300
L 0.09063 -0.45300
L 0.09063 -0.52500
L 0.25000 -0.52500
L 0.25000 -0.45300
Z
M 0.21400 -0.00000
L 0.21400 -0.52500
L 0.28600 -0.52500
L 0.28600 -0.00000
L 0.21400 -0.00000
Z
M 0.06250 -0.07200
L 0.43750 -0.07200
L 0.43750 -0.00000
L 0.06250 -0.00000
L 0.06250 -0.07200
Z
M 0.18188 -0.67900
C 0.18187 -0.66264
 0.18861 -0.64638
 0.20018 -0.63481
C 0.21175 -0.62324
 0.22801 -0.61650
 0.24438 -0.61650
C 0.26074 -0.61650
 0.27700 -0.62324
 0.28857 -0.63481
C 0.30014 -0.64638
 0.30688 -0.66264
 0.30688 -0.67900
C 0.30687 -0.69536
 0.30014 -0.71162
 0.28857 -0.72319
C 0.27700 -0.73476
 0.26074 -0.74150
 0.24438 -0.74150
C 0.22801 -0.74150
 0.21175 -0.73476
 0.20018 -0.72319
C 0.18861 -0.71162
 0.18187 -0.69536
 0.18188 -0.67900
Z" fill="black" />
</svg>
