<svg xmlns="http://www.w3.org/2000/svg" viewBox="-0.2500 -1.0500 1.5000 1.5000">
  <path d="M 0.3299 -0.7000
L 0.4109 -0.7000
L 0.4109 -0.1750
C 0.4109 -0.1506
 0.4100 -0.1259
 0.4027 -0.1026
C 0.3954 -0.0793
 0.3821 -0.0580
 0.3646 -0.0410
C 0.3450 -0.0219
 0.3206 -0.0082
 0.2947 0.0006
C 0.2688 0.0093
 0.2413 0.0133
 0.2140 0.0131
C 0.1867 0.0130
 0.1594 0.0087
 0.1336 -0.0001
C 0.1078 -0.0089
 0.0834 -0.0224
 0.0634 -0.0410
C 0.0419 -0.0610
 0.0257 -0.0868
 0.0171 -0.1148
L 0.0890 -0.1508
C 0.0924 -0.1310
 0.1026 -0.1126
 0.1173 -0.0990
C 0.1301 -0.0873
 0.1460 -0.0793
 0.1626 -0.0741
C 0.1793 -0.0690
 0.1966 -0.0665
 0.2140 -0.0661
C 0.2313 -0.0656
 0.2487 -0.0672
 0.2652 -0.0719
C 0.2818 -0.0767
 0.2977 -0.0851
 0.3094 -0.0978
C 0.3187 -0.1079
 0.3249 -0.1206
 0.3282 -0.1340
C 0.3315 -0.1474
 0.3317 -0.1612
 0.3317 -0.1750
L 0.3299 -0.7000
Z
M 0.1578 -0.7000
L 0.4015 -0.7000
L 0.4015 -0.6280
L 0.1578 -0.6280
L 0.1578 -0.7000
Z" fill="black" />
</svg>
