<svg xmlns="http://www.w3.org/2000/svg" viewBox="-0.25000 -1.05000 1.50000 1.50000">
  <path d="M 0.34675 -0.36504
L 0.34675 -0.42997
C 0.31568 -0.45010
 0.28003 -0.46425
 0.24306 -0.46646
C 0.22690 -0.46743
 0.21042 -0.46583
 0.19522 -0.46022
C 0.18003 -0.45462
 0.16622 -0.44479
 0.15700 -0.43147
C 0.14730 -0.41746
 0.14304 -0.39981
 0.14524 -0.38291
C 0.14744 -0.36601
 0.15587 -0.35021
 0.16774 -0.33799
C 0.17961 -0.32577
 0.19470 -0.31702
 0.21056 -0.31079
C 0.22642 -0.30455
 0.24309 -0.30069
 0.25976 -0.29715
C 0.28738 -0.29129
 0.31536 -0.28595
 0.34133 -0.27487
C 0.36730 -0.26379
 0.39112 -0.24687
 0.40797 -0.22421
C 0.42482 -0.20155
 0.43430 -0.17347
 0.43437 -0.14524
C 0.43444 -0.11700
 0.42524 -0.08898
 0.40937 -0.06562
C 0.39208 -0.04016
 0.36721 -0.02023
 0.33938 -0.00708
C 0.31156 0.00607
 0.28078 0.01271
 0.25000 0.01312
C 0.21949 0.01354
 0.18879 0.00780
 0.16095 -0.00467
C 0.13310 -0.01713
 0.10822 -0.03660
 0.09063 -0.06152
C 0.07372 -0.08546
 0.06376 -0.11428
 0.06250 -0.14355
L 0.13452 -0.14355
C 0.13565 -0.12948
 0.14062 -0.11576
 0.14865 -0.10415
C 0.15984 -0.08798
 0.17671 -0.07625
 0.19504 -0.06914
C 0.21338 -0.06203
 0.23315 -0.05899
 0.25281 -0.05882
C 0.26988 -0.05867
 0.28711 -0.06076
 0.30316 -0.06654
C 0.31922 -0.07232
 0.33408 -0.08219
 0.34410 -0.09601
C 0.35417 -0.10990
 0.35889 -0.12761
 0.35685 -0.14465
C 0.35481 -0.16169
 0.34625 -0.17764
 0.33409 -0.18975
C 0.32193 -0.20186
 0.30645 -0.21023
 0.29026 -0.21595
C 0.27408 -0.22166
 0.25714 -0.22489
 0.24024 -0.22785
C 0.21223 -0.23276
 0.18389 -0.23741
 0.15762 -0.24829
C 0.13134 -0.25917
 0.10737 -0.27636
 0.09066 -0.29937
C 0.07395 -0.32238
 0.06486 -0.35081
 0.06511 -0.37925
C 0.06535 -0.40768
 0.07473 -0.43580
 0.09063 -0.45937
C 0.10786 -0.48495
 0.13253 -0.50523
 0.16036 -0.51852
C 0.18820 -0.53182
 0.21916 -0.53825
 0.25000 -0.53812
C 0.31323 -0.53786
 0.37558 -0.50968
 0.41875 -0.46348
L 0.41875 -0.36504
L 0.34675 -0.36504
Z" fill="black" />
</svg>
