<svg xmlns="http://www.w3.org/2000/svg" viewBox="-0.2500 -1.0500 1.5000 1.5000">
  <path d="M 0.3655 -0.3117
L 0.3655 -0.4195
C 0.3359 -0.4497
 0.2937 -0.4677
 0.2515 -0.4661
C 0.2318 -0.4654
 0.2122 -0.4603
 0.1951 -0.4504
C 0.1780 -0.4406
 0.1637 -0.4261
 0.1541 -0.4089
C 0.1432 -0.3896
 0.1382 -0.3674
 0.1362 -0.3454
C 0.1341 -0.3233
 0.1345 -0.3011
 0.1345 -0.2789
L 0.1345 -0.2461
C 0.1345 -0.2240
 0.1341 -0.2019
 0.1360 -0.1799
C 0.1379 -0.1579
 0.1428 -0.1358
 0.1538 -0.1166
C 0.1638 -0.0990
 0.1788 -0.0844
 0.1966 -0.0747
C 0.2143 -0.0649
 0.2344 -0.0600
 0.2546 -0.0587
C 0.3046 -0.0557
 0.3546 -0.0730
 0.3958 -0.1014
L 0.4375 -0.0427
C 0.3833 -0.0042
 0.3163 0.0174
 0.2500 0.0131
C 0.2177 0.0111
 0.1857 0.0025
 0.1577 -0.0136
C 0.1296 -0.0298
 0.1062 -0.0537
 0.0906 -0.0820
C 0.0771 -0.1066
 0.0696 -0.1342
 0.0660 -0.1620
C 0.0625 -0.1899
 0.0625 -0.2180
 0.0625 -0.2461
L 0.0625 -0.2789
C 0.0625 -0.3070
 0.0625 -0.3351
 0.0662 -0.3629
C 0.0698 -0.3907
 0.0774 -0.4183
 0.0906 -0.4430
C 0.1060 -0.4716
 0.1291 -0.4960
 0.1571 -0.5125
C 0.1851 -0.5289
 0.2175 -0.5374
 0.2500 -0.5381
C 0.2864 -0.5389
 0.3229 -0.5300
 0.3553 -0.5134
C 0.3877 -0.4968
 0.4161 -0.4724
 0.4375 -0.4430
L 0.4375 -0.3117
L 0.3655 -0.3117
Z" fill="black" />
</svg>
