<svg xmlns="http://www.w3.org/2000/svg" viewBox="-0.2500 -1.0500 1.5000 1.5000">
  <path d="M 0.0625 -0.7000
L 0.1875 -0.7000
C 0.2286 -0.7000
 0.2703 -0.6997
 0.3099 -0.6883
C 0.3494 -0.6770
 0.3863 -0.6538
 0.4094 -0.6198
C 0.4208 -0.6031
 0.4287 -0.5840
 0.4329 -0.5642
C 0.4371 -0.5444
 0.4375 -0.5240
 0.4375 -0.5038
L 0.4375 -0.4937
C 0.4375 -0.4735
 0.4371 -0.4531
 0.4329 -0.4333
C 0.4287 -0.4135
 0.4208 -0.3944
 0.4094 -0.3777
C 0.3863 -0.3437
 0.3494 -0.3205
 0.3099 -0.3092
C 0.2703 -0.2978
 0.2286 -0.2975
 0.1875 -0.2975
L 0.0625 -0.2975
L 0.0625 -0.3695
L 0.1875 -0.3695
C 0.2172 -0.3695
 0.2471 -0.3680
 0.2763 -0.3731
C 0.2909 -0.3756
 0.3053 -0.3801
 0.3181 -0.3876
C 0.3309 -0.3951
 0.3420 -0.4056
 0.3498 -0.4182
C 0.3567 -0.4292
 0.3610 -0.4418
 0.3632 -0.4547
C 0.3654 -0.4676
 0.3655 -0.4807
 0.3655 -0.4937
L 0.3655 -0.5038
C 0.3655 -0.5168
 0.3654 -0.5299
 0.3632 -0.5428
C 0.3610 -0.5557
 0.3567 -0.5683
 0.3498 -0.5793
C 0.3420 -0.5919
 0.3309 -0.6024
 0.3181 -0.6099
C 0.3053 -0.6174
 0.2909 -0.6219
 0.2763 -0.6244
C 0.2471 -0.6295
 0.2172 -0.6280
 0.1875 -0.6280
L 0.0625 -0.6280
L 0.0625 -0.7000
Z
M 0.0625 -0.0000
L 0.0625 -0.7000
L 0.1345 -0.7000
L 0.1345 -0.0000
L 0.0625 -0.0000
Z" fill="black" />
</svg>
