<svg xmlns="http://www.w3.org/2000/svg" viewBox="-0.2500 -1.0500 1.5000 1.5000">
  <path d="M 0.1345 -0.2789
L 0.1345 -0.2461
C 0.1345 -0.2237
 0.1342 -0.2012
 0.1359 -0.1789
C 0.1377 -0.1565
 0.1418 -0.1340
 0.1513 -0.1138
C 0.1600 -0.0955
 0.1732 -0.0791
 0.1900 -0.0680
C 0.2069 -0.0568
 0.2273 -0.0510
 0.2475 -0.0516
C 0.2700 -0.0523
 0.2920 -0.0610
 0.3097 -0.0749
C 0.3273 -0.0889
 0.3407 -0.1078
 0.3499 -0.1283
C 0.3604 -0.1518
 0.3657 -0.1773
 0.3687 -0.2028
C 0.3717 -0.2284
 0.3727 -0.2541
 0.3727 -0.2798
C 0.3727 -0.3022
 0.3718 -0.3246
 0.3680 -0.3467
C 0.3643 -0.3688
 0.3574 -0.3905
 0.3456 -0.4095
C 0.3355 -0.4259
 0.3216 -0.4401
 0.3052 -0.4501
C 0.2887 -0.4601
 0.2696 -0.4657
 0.2503 -0.4661
C 0.2307 -0.4665
 0.2109 -0.4614
 0.1941 -0.4513
C 0.1772 -0.4412
 0.1635 -0.4262
 0.1541 -0.4090
C 0.1435 -0.3895
 0.1386 -0.3674
 0.1364 -0.3453
C 0.1342 -0.3233
 0.1345 -0.3011
 0.1345 -0.2789
Z
M 0.0906 -0.4430
C 0.1060 -0.4716
 0.1291 -0.4962
 0.1570 -0.5127
C 0.1850 -0.5293
 0.2175 -0.5380
 0.2500 -0.5381
C 0.2826 -0.5383
 0.3152 -0.5298
 0.3432 -0.5132
C 0.3713 -0.4966
 0.3943 -0.4718
 0.4094 -0.4430
C 0.4224 -0.4181
 0.4297 -0.3906
 0.4335 -0.3628
C 0.4373 -0.3351
 0.4379 -0.3069
 0.4375 -0.2789
C 0.4367 -0.2190
 0.4332 -0.1575
 0.4094 -0.1025
C 0.3956 -0.0707
 0.3743 -0.0419
 0.3465 -0.0212
C 0.3187 -0.0005
 0.2846 0.0118
 0.2500 0.0131
C 0.2173 0.0144
 0.1844 0.0059
 0.1564 -0.0110
C 0.1285 -0.0279
 0.1058 -0.0531
 0.0906 -0.0820
C 0.0776 -0.1069
 0.0701 -0.1343
 0.0664 -0.1621
C 0.0626 -0.1899
 0.0625 -0.2181
 0.0625 -0.2461
L 0.0625 -0.2789
C 0.0625 -0.3070
 0.0625 -0.3351
 0.0662 -0.3629
C 0.0699 -0.3907
 0.0774 -0.4182
 0.0906 -0.4430
Z
M 0.3603 -0.5250
L 0.4375 -0.5250
L 0.4375 0.0250
C 0.4375 0.0492
 0.4367 0.0737
 0.4298 0.0970
C 0.4230 0.1202
 0.4103 0.1416
 0.3934 0.1590
C 0.3751 0.1778
 0.3521 0.1918
 0.3274 0.2007
C 0.3027 0.2096
 0.2763 0.2136
 0.2500 0.2131
C 0.1978 0.2123
 0.1455 0.1938
 0.1066 0.1590
C 0.0885 0.1428
 0.0734 0.1232
 0.0625 0.1016
L 0.1301 0.0678
C 0.1374 0.0805
 0.1465 0.0923
 0.1570 0.1026
C 0.1818 0.1272
 0.2152 0.1437
 0.2500 0.1451
C 0.2668 0.1457
 0.2838 0.1429
 0.2993 0.1363
C 0.3148 0.1297
 0.3287 0.1193
 0.3393 0.1062
C 0.3483 0.0950
 0.3547 0.0818
 0.3582 0.0678
C 0.3616 0.0539
 0.3619 0.0394
 0.3619 0.0250
L 0.3603 -0.5250
Z" fill="black" />
</svg>
