<svg xmlns="http://www.w3.org/2000/svg" viewBox="-0.25000 -1.05000 1.50000 1.50000">
  <path d="M 0.34721 -0.58164
C 0.33710 -0.59878
 0.32331 -0.61388
 0.30649 -0.62451
C 0.28968 -0.63514
 0.26989 -0.64113
 0.25000 -0.64113
C 0.23011 -0.64113
 0.21032 -0.63514
 0.19351 -0.62451
C 0.17669 -0.61388
 0.16290 -0.59878
 0.15279 -0.58164
C 0.13835 -0.55718
 0.13136 -0.52896
 0.12814 -0.50074
C 0.12491 -0.47252
 0.12512 -0.44403
 0.12512 -0.41562
L 0.12512 -0.28437
C 0.12512 -0.25597
 0.12491 -0.22748
 0.12814 -0.19926
C 0.13136 -0.17104
 0.13835 -0.14282
 0.15279 -0.11836
C 0.16290 -0.10122
 0.17669 -0.08612
 0.19351 -0.07549
C 0.21032 -0.06486
 0.23011 -0.05887
 0.25000 -0.05887
C 0.26989 -0.05887
 0.28968 -0.06486
 0.30649 -0.07549
C 0.32331 -0.08612
 0.33710 -0.10122
 0.34721 -0.11836
C 0.36165 -0.14282
 0.36864 -0.17104
 0.37186 -0.19926
C 0.37509 -0.22748
 0.37488 -0.25597
 0.37488 -0.28437
L 0.37488 -0.41562
C 0.37488 -0.44403
 0.37509 -0.47252
 0.37186 -0.50074
C 0.36864 -0.52896
 0.36165 -0.55718
 0.34721 -0.58164
Z
M 0.44688 -0.41562
L 0.44688 -0.28437
C 0.44688 -0.24964
 0.44680 -0.21476
 0.44185 -0.18037
C 0.43690 -0.14599
 0.42690 -0.11203
 0.40937 -0.08203
C 0.39302 -0.05405
 0.37011 -0.02976
 0.34241 -0.01293
C 0.31472 0.00391
 0.28241 0.01312
 0.25000 0.01312
C 0.21759 0.01313
 0.18528 0.00391
 0.15759 -0.01293
C 0.12989 -0.02976
 0.10698 -0.05405
 0.09063 -0.08203
C 0.07310 -0.11203
 0.06310 -0.14599
 0.05815 -0.18037
C 0.05320 -0.21476
 0.05312 -0.24964
 0.05312 -0.28437
L 0.05312 -0.41562
C 0.05312 -0.45036
 0.05320 -0.48524
 0.05815 -0.51963
C 0.06310 -0.55401
 0.07310 -0.58797
 0.09063 -0.61797
C 0.10698 -0.64595
 0.12989 -0.67024
 0.15759 -0.68707
C 0.18528 -0.70391
 0.21759 -0.71313
 0.25000 -0.71313
C 0.28241 -0.71313
 0.31472 -0.70391
 0.34241 -0.68707
C 0.37011 -0.67024
 0.39302 -0.64595
 0.40937 -0.61797
C 0.42690 -0.58797
 0.43690 -0.55401
 0.44185 -0.51963
C 0.44680 -0.48524
 0.44688 -0.45036
 0.44688 -0.41562
Z
M 0.12512 -0.28437
L 0.37488 -0.49696
L 0.37488 -0.41562
L 0.12512 -0.20304
L 0.12512 -0.28437
Z" fill="black" />
</svg>
