<svg xmlns="http://www.w3.org/2000/svg" viewBox="-0.2500 -1.0500 1.5000 1.5000">
  <path d="M 0.0625 -0.7000
L 0.1875 -0.7000
C 0.2287 -0.7000
 0.2705 -0.6986
 0.3097 -0.6859
C 0.3489 -0.6732
 0.3853 -0.6498
 0.4094 -0.6163
C 0.4201 -0.6015
 0.4281 -0.5846
 0.4325 -0.5669
C 0.4369 -0.5491
 0.4375 -0.5306
 0.4375 -0.5123
L 0.4375 -0.4677
C 0.4375 -0.4494
 0.4369 -0.4309
 0.4325 -0.4131
C 0.4281 -0.3954
 0.4201 -0.3785
 0.4094 -0.3637
C 0.3853 -0.3302
 0.3489 -0.3068
 0.3097 -0.2941
C 0.2705 -0.2814
 0.2287 -0.2800
 0.1875 -0.2800
L 0.0625 -0.2800
L 0.0625 -0.3520
L 0.1875 -0.3520
C 0.2175 -0.3520
 0.2479 -0.3516
 0.2771 -0.3583
C 0.2917 -0.3617
 0.3060 -0.3669
 0.3188 -0.3748
C 0.3316 -0.3826
 0.3428 -0.3931
 0.3509 -0.4057
C 0.3567 -0.4148
 0.3608 -0.4250
 0.3631 -0.4355
C 0.3653 -0.4461
 0.3655 -0.4569
 0.3655 -0.4677
L 0.3655 -0.5123
C 0.3655 -0.5231
 0.3653 -0.5339
 0.3631 -0.5445
C 0.3608 -0.5550
 0.3567 -0.5652
 0.3509 -0.5743
C 0.3428 -0.5869
 0.3316 -0.5974
 0.3188 -0.6052
C 0.3060 -0.6131
 0.2917 -0.6183
 0.2771 -0.6217
C 0.2479 -0.6284
 0.2175 -0.6280
 0.1875 -0.6280
L 0.0625 -0.6280
L 0.0625 -0.7000
Z
M 0.0625 -0.0000
L 0.0625 -0.7000
L 0.1345 -0.7000
L 0.1345 -0.0000
L 0.0625 -0.0000
Z" fill="black" />
</svg>
