<svg xmlns="http://www.w3.org/2000/svg" viewBox="-0.2500 -1.0500 1.5000 1.5000">
  <path d="M 0.3459 -0.4091
C 0.3364 -0.4262
 0.3226 -0.4409
 0.3058 -0.4509
C 0.2891 -0.4609
 0.2695 -0.4661
 0.2500 -0.4661
C 0.2305 -0.4661
 0.2109 -0.4609
 0.1942 -0.4509
C 0.1774 -0.4409
 0.1636 -0.4262
 0.1541 -0.4091
C 0.1434 -0.3896
 0.1384 -0.3675
 0.1363 -0.3454
C 0.1342 -0.3233
 0.1345 -0.3011
 0.1345 -0.2789
L 0.1345 -0.2461
C 0.1345 -0.2239
 0.1342 -0.2017
 0.1363 -0.1796
C 0.1384 -0.1575
 0.1434 -0.1354
 0.1541 -0.1159
C 0.1636 -0.0988
 0.1774 -0.0841
 0.1942 -0.0741
C 0.2109 -0.0641
 0.2305 -0.0589
 0.2500 -0.0589
C 0.2695 -0.0589
 0.2891 -0.0641
 0.3058 -0.0741
C 0.3226 -0.0841
 0.3364 -0.0988
 0.3459 -0.1159
C 0.3566 -0.1354
 0.3616 -0.1575
 0.3637 -0.1796
C 0.3658 -0.2017
 0.3655 -0.2239
 0.3655 -0.2461
L 0.3655 -0.2789
C 0.3655 -0.3011
 0.3658 -0.3233
 0.3637 -0.3454
C 0.3616 -0.3675
 0.3566 -0.3896
 0.3459 -0.4091
Z
M 0.4375 -0.2789
L 0.4375 -0.2461
C 0.4375 -0.2180
 0.4375 -0.1899
 0.4338 -0.1621
C 0.4301 -0.1343
 0.4226 -0.1068
 0.4094 -0.0820
C 0.3941 -0.0533
 0.3710 -0.0287
 0.3430 -0.0121
C 0.3151 0.0045
 0.2825 0.0131
 0.2500 0.0131
C 0.2175 0.0131
 0.1849 0.0045
 0.1570 -0.0121
C 0.1290 -0.0287
 0.1059 -0.0533
 0.0906 -0.0820
C 0.0774 -0.1068
 0.0699 -0.1343
 0.0662 -0.1621
C 0.0625 -0.1899
 0.0625 -0.2180
 0.0625 -0.2461
L 0.0625 -0.2789
C 0.0625 -0.3070
 0.0625 -0.3351
 0.0662 -0.3629
C 0.0699 -0.3907
 0.0774 -0.4182
 0.0906 -0.4430
C 0.1059 -0.4717
 0.1290 -0.4963
 0.1570 -0.5129
C 0.1849 -0.5295
 0.2175 -0.5381
 0.2500 -0.5381
C 0.2825 -0.5381
 0.3151 -0.5295
 0.3430 -0.5129
C 0.3710 -0.4963
 0.3941 -0.4717
 0.4094 -0.4430
C 0.4226 -0.4182
 0.4301 -0.3907
 0.4338 -0.3629
C 0.4375 -0.3351
 0.4375 -0.3070
 0.4375 -0.2789
Z" fill="black" />
</svg>
