<svg xmlns="http://www.w3.org/2000/svg" viewBox="-0.25000 -1.05000 1.50000 1.50000">
  <path d="M 0.13450 -0.27891
L 0.13450 -0.24609
C 0.13450 -0.22367
 0.13421 -0.20121
 0.13595 -0.17886
C 0.13768 -0.15650
 0.14178 -0.13405
 0.15134 -0.11376
C 0.15996 -0.09546
 0.17317 -0.07915
 0.19004 -0.06798
C 0.20692 -0.05681
 0.22728 -0.05098
 0.24751 -0.05163
C 0.27000 -0.05235
 0.29198 -0.06101
 0.30966 -0.07494
C 0.32733 -0.08886
 0.34073 -0.10777
 0.34992 -0.12831
C 0.36042 -0.15178
 0.36570 -0.17728
 0.36871 -0.20282
C 0.37172 -0.22835
 0.37273 -0.25410
 0.37271 -0.27981
C 0.37268 -0.30219
 0.37178 -0.32464
 0.36802 -0.34671
C 0.36426 -0.36877
 0.35739 -0.39052
 0.34560 -0.40954
C 0.33545 -0.42592
 0.32165 -0.44012
 0.30516 -0.45009
C 0.28866 -0.46006
 0.26956 -0.46574
 0.25030 -0.46613
C 0.23066 -0.46652
 0.21093 -0.46136
 0.19408 -0.45127
C 0.17724 -0.44119
 0.16346 -0.42624
 0.15410 -0.40898
C 0.14353 -0.38950
 0.13856 -0.36741
 0.13640 -0.34535
C 0.13424 -0.32329
 0.13450 -0.30107
 0.13450 -0.27891
Z
M 0.09063 -0.44297
C 0.10597 -0.47162
 0.12906 -0.49615
 0.15703 -0.51272
C 0.18499 -0.52929
 0.21749 -0.53799
 0.25000 -0.53812
C 0.28257 -0.53826
 0.31523 -0.52977
 0.34325 -0.51318
C 0.37127 -0.49658
 0.39426 -0.47181
 0.40937 -0.44297
C 0.42239 -0.41814
 0.42970 -0.39062
 0.43350 -0.36284
C 0.43729 -0.33506
 0.43789 -0.30694
 0.43750 -0.27891
C 0.43666 -0.21900
 0.43320 -0.15751
 0.40937 -0.10254
C 0.39559 -0.07073
 0.37430 -0.04191
 0.34649 -0.02122
C 0.31869 -0.00052
 0.28464 0.01179
 0.25000 0.01312
C 0.21735 0.01438
 0.18438 0.00588
 0.15642 -0.01102
C 0.12845 -0.02792
 0.10576 -0.05307
 0.09063 -0.08203
C 0.07764 -0.10688
 0.07012 -0.13434
 0.06636 -0.16213
C 0.06260 -0.18992
 0.06250 -0.21805
 0.06250 -0.24609
L 0.06250 -0.27891
C 0.06250 -0.30696
 0.06252 -0.33511
 0.06620 -0.36292
C 0.06987 -0.39073
 0.07738 -0.41824
 0.09063 -0.44297
Z
M 0.36032 -0.52500
L 0.43750 -0.52500
L 0.43750 0.02500
C 0.43750 0.04921
 0.43672 0.07374
 0.42984 0.09696
C 0.42296 0.12017
 0.41034 0.14164
 0.39344 0.15898
C 0.37511 0.17780
 0.35209 0.19180
 0.32738 0.20071
C 0.30267 0.20961
 0.27626 0.21356
 0.25000 0.21313
C 0.19781 0.21226
 0.14546 0.19379
 0.10656 0.15898
C 0.08848 0.14280
 0.07342 0.12323
 0.06250 0.10156
L 0.13012 0.06775
C 0.13745 0.08052
 0.14650 0.09230
 0.15697 0.10264
C 0.18177 0.12715
 0.21516 0.14368
 0.25000 0.14508
C 0.26682 0.14575
 0.28383 0.14286
 0.29932 0.13627
C 0.31481 0.12968
 0.32875 0.11935
 0.33929 0.10622
C 0.34830 0.09502
 0.35472 0.08179
 0.35817 0.06784
C 0.36162 0.05388
 0.36194 0.03937
 0.36190 0.02500
L 0.36032 -0.52500
Z" fill="black" />
</svg>
