<svg xmlns="http://www.w3.org/2000/svg" viewBox="-0.2500 -1.0500 1.5000 1.5000">
  <path d="M 0.2192 -0.7000
L 0.2176 -0.1750
C 0.2176 -0.1603
 0.2176 -0.1455
 0.2204 -0.1310
C 0.2231 -0.1166
 0.2287 -0.1025
 0.2382 -0.0912
C 0.2468 -0.0809
 0.2585 -0.0734
 0.2711 -0.0687
C 0.2837 -0.0640
 0.2973 -0.0621
 0.3107 -0.0625
C 0.3382 -0.0632
 0.3658 -0.0734
 0.3850 -0.0930
C 0.3997 -0.1081
 0.4088 -0.1286
 0.4099 -0.1496
L 0.4795 -0.1148
C 0.4731 -0.0873
 0.4593 -0.0615
 0.4398 -0.0410
C 0.4069 -0.0062
 0.3587 0.0127
 0.3107 0.0131
C 0.2867 0.0133
 0.2626 0.0090
 0.2403 -0.0001
C 0.2180 -0.0092
 0.1976 -0.0230
 0.1817 -0.0410
C 0.1658 -0.0589
 0.1546 -0.0807
 0.1486 -0.1038
C 0.1426 -0.1270
 0.1420 -0.1511
 0.1420 -0.1750
L 0.1420 -0.7000
L 0.2192 -0.7000
Z
M 0.0280 -0.5250
L 0.4280 -0.5250
L 0.4280 -0.4530
L 0.0280 -0.4530
L 0.0280 -0.5250
Z" fill="black" />
</svg>
