<svg xmlns="http://www.w3.org/2000/svg" viewBox="-0.2500 -1.0500 1.5000 1.5000">
  <path d="M 0.3654 -0.5269
C 0.3646 -0.5572
 0.3517 -0.5870
 0.3301 -0.6081
C 0.3084 -0.6293
 0.2783 -0.6416
 0.2480 -0.6412
C 0.2290 -0.6408
 0.2101 -0.6355
 0.1939 -0.6257
C 0.1776 -0.6160
 0.1641 -0.6017
 0.1548 -0.5852
C 0.1405 -0.5602
 0.1359 -0.5308
 0.1347 -0.5020
C 0.1335 -0.4733
 0.1345 -0.4444
 0.1345 -0.4156
L 0.1345 -0.2844
C 0.1345 -0.2556
 0.1335 -0.2267
 0.1347 -0.1980
C 0.1359 -0.1692
 0.1405 -0.1398
 0.1548 -0.1148
C 0.1641 -0.0983
 0.1776 -0.0840
 0.1939 -0.0743
C 0.2101 -0.0645
 0.2290 -0.0592
 0.2480 -0.0588
C 0.2783 -0.0584
 0.3084 -0.0707
 0.3301 -0.0919
C 0.3517 -0.1130
 0.3646 -0.1428
 0.3654 -0.1731
L 0.4375 -0.1731
C 0.4347 -0.1248
 0.4138 -0.0778
 0.3796 -0.0436
C 0.3455 -0.0094
 0.2983 0.0118
 0.2500 0.0131
C 0.2173 0.0140
 0.1844 0.0058
 0.1563 -0.0110
C 0.1282 -0.0277
 0.1055 -0.0529
 0.0906 -0.0820
C 0.0750 -0.1127
 0.0679 -0.1470
 0.0650 -0.1813
C 0.0620 -0.2155
 0.0625 -0.2500
 0.0625 -0.2844
L 0.0625 -0.4156
C 0.0625 -0.4500
 0.0620 -0.4845
 0.0650 -0.5187
C 0.0679 -0.5530
 0.0750 -0.5873
 0.0906 -0.6180
C 0.1055 -0.6471
 0.1282 -0.6723
 0.1563 -0.6890
C 0.1844 -0.7058
 0.2173 -0.7140
 0.2500 -0.7131
C 0.2983 -0.7118
 0.3455 -0.6906
 0.3796 -0.6564
C 0.4138 -0.6222
 0.4347 -0.5752
 0.4375 -0.5269
L 0.3654 -0.5269
Z" fill="black" />
</svg>
