<svg xmlns="http://www.w3.org/2000/svg" viewBox="-0.25000 -1.05000 1.50000 1.50000">
  <path d="M 0.38633 -0.00000
L 0.38633 -0.39375
C 0.38633 -0.40332
 0.38656 -0.41291
 0.38593 -0.42246
C 0.38530 -0.43201
 0.38354 -0.44164
 0.37915 -0.45015
C 0.37356 -0.46099
 0.36359 -0.46942
 0.35205 -0.47336
C 0.34301 -0.47644
 0.33316 -0.47695
 0.32378 -0.47518
C 0.31439 -0.47340
 0.30547 -0.46937
 0.29782 -0.46364
C 0.28254 -0.45219
 0.27265 -0.43390
 0.27118 -0.41486
L 0.22135 -0.42246
C 0.22619 -0.45413
 0.24229 -0.48402
 0.26625 -0.50529
C 0.29021 -0.52656
 0.32214 -0.53917
 0.35417 -0.53812
C 0.37230 -0.53753
 0.39034 -0.53251
 0.40586 -0.52313
C 0.42139 -0.51375
 0.43418 -0.50000
 0.44271 -0.48398
C 0.44996 -0.47036
 0.45415 -0.45525
 0.45622 -0.43996
C 0.45830 -0.42467
 0.45833 -0.40918
 0.45833 -0.39375
L 0.45833 -0.00000
L 0.38633 -0.00000
Z
M 0.21400 -0.00000
L 0.21400 -0.39375
C 0.21400 -0.40332
 0.21422 -0.41291
 0.21359 -0.42246
C 0.21297 -0.43201
 0.21121 -0.44164
 0.20682 -0.45015
C 0.20123 -0.46099
 0.19126 -0.46942
 0.17972 -0.47336
C 0.17068 -0.47644
 0.16082 -0.47695
 0.15144 -0.47518
C 0.14206 -0.47340
 0.13313 -0.46937
 0.12549 -0.46364
C 0.11021 -0.45219
 0.10032 -0.43390
 0.09884 -0.41486
L 0.04902 -0.42246
C 0.05386 -0.45413
 0.06996 -0.48402
 0.09392 -0.50529
C 0.11788 -0.52656
 0.14981 -0.53917
 0.18183 -0.53812
C 0.19996 -0.53753
 0.21801 -0.53251
 0.23353 -0.52313
C 0.24905 -0.51375
 0.26185 -0.50000
 0.27037 -0.48398
C 0.27763 -0.47036
 0.28181 -0.45525
 0.28389 -0.43996
C 0.28596 -0.42467
 0.28600 -0.40918
 0.28600 -0.39375
L 0.28600 -0.00000
L 0.21400 -0.00000
Z
M 0.04167 -0.00000
L 0.04167 -0.52500
L 0.11367 -0.52500
L 0.11367 -0.00000
L 0.04167 -0.00000
Z" fill="black" />
</svg>
