<svg xmlns="http://www.w3.org/2000/svg" viewBox="-0.2500 -1.0500 1.5000 1.5000">
  <path d="M 0.2808 -0.5250
L 0.3580 -0.5250
L 0.3580 0.0250
C 0.3580 0.0489
 0.3574 0.0730
 0.3514 0.0962
C 0.3454 0.1193
 0.3342 0.1411
 0.3183 0.1590
C 0.3024 0.1770
 0.2820 0.1908
 0.2597 0.1999
C 0.2374 0.2090
 0.2133 0.2133
 0.1892 0.2131
C 0.1413 0.2127
 0.0931 0.1938
 0.0602 0.1590
C 0.0407 0.1385
 0.0269 0.1127
 0.0205 0.0852
L 0.0901 0.0504
C 0.0912 0.0714
 0.1003 0.0919
 0.1150 0.1070
C 0.1342 0.1266
 0.1618 0.1368
 0.1892 0.1375
C 0.2027 0.1379
 0.2163 0.1360
 0.2289 0.1313
C 0.2415 0.1266
 0.2532 0.1191
 0.2618 0.1088
C 0.2713 0.0975
 0.2769 0.0834
 0.2796 0.0690
C 0.2824 0.0545
 0.2824 0.0397
 0.2824 0.0250
L 0.2808 -0.5250
Z
M 0.3220 -0.4530
L 0.1520 -0.4530
L 0.1520 -0.5250
L 0.3220 -0.5250
L 0.3220 -0.4530
Z
M 0.2539 -0.6790
C 0.2539 -0.6626
 0.2606 -0.6464
 0.2722 -0.6348
C 0.2838 -0.6232
 0.3000 -0.6165
 0.3164 -0.6165
C 0.3327 -0.6165
 0.3490 -0.6232
 0.3606 -0.6348
C 0.3721 -0.6464
 0.3789 -0.6626
 0.3789 -0.6790
C 0.3789 -0.6954
 0.3721 -0.7116
 0.3606 -0.7232
C 0.3490 -0.7348
 0.3327 -0.7415
 0.3164 -0.7415
C 0.3000 -0.7415
 0.2838 -0.7348
 0.2722 -0.7232
C 0.2606 -0.7116
 0.2539 -0.6954
 0.2539 -0.6790
Z" fill="black" />
</svg>
