<svg xmlns="http://www.w3.org/2000/svg" viewBox="-0.2500 -1.0500 1.5000 1.5000">
  <path d="M 0.3468 -0.3650
L 0.3468 -0.4300
C 0.3157 -0.4501
 0.2800 -0.4642
 0.2431 -0.4665
C 0.2269 -0.4674
 0.2104 -0.4658
 0.1952 -0.4602
C 0.1800 -0.4546
 0.1662 -0.4448
 0.1570 -0.4315
C 0.1473 -0.4175
 0.1430 -0.3998
 0.1452 -0.3829
C 0.1474 -0.3660
 0.1559 -0.3502
 0.1677 -0.3380
C 0.1796 -0.3258
 0.1947 -0.3170
 0.2106 -0.3108
C 0.2264 -0.3046
 0.2431 -0.3007
 0.2598 -0.2972
C 0.2874 -0.2913
 0.3154 -0.2859
 0.3413 -0.2749
C 0.3673 -0.2638
 0.3911 -0.2469
 0.4080 -0.2242
C 0.4248 -0.2016
 0.4343 -0.1735
 0.4344 -0.1452
C 0.4344 -0.1170
 0.4252 -0.0890
 0.4094 -0.0656
C 0.3921 -0.0402
 0.3672 -0.0202
 0.3394 -0.0071
C 0.3116 0.0061
 0.2808 0.0127
 0.2500 0.0131
C 0.2195 0.0135
 0.1888 0.0078
 0.1609 -0.0047
C 0.1331 -0.0171
 0.1082 -0.0366
 0.0906 -0.0615
C 0.0737 -0.0855
 0.0638 -0.1143
 0.0625 -0.1436
L 0.1345 -0.1436
C 0.1356 -0.1295
 0.1406 -0.1158
 0.1487 -0.1042
C 0.1598 -0.0880
 0.1767 -0.0762
 0.1950 -0.0691
C 0.2134 -0.0620
 0.2331 -0.0590
 0.2528 -0.0588
C 0.2699 -0.0587
 0.2871 -0.0608
 0.3032 -0.0665
C 0.3192 -0.0723
 0.3341 -0.0822
 0.3441 -0.0960
C 0.3542 -0.1099
 0.3589 -0.1276
 0.3569 -0.1446
C 0.3548 -0.1617
 0.3462 -0.1776
 0.3341 -0.1897
C 0.3219 -0.2019
 0.3064 -0.2102
 0.2903 -0.2159
C 0.2741 -0.2217
 0.2571 -0.2249
 0.2402 -0.2278
C 0.2122 -0.2328
 0.1839 -0.2374
 0.1576 -0.2483
C 0.1313 -0.2592
 0.1074 -0.2764
 0.0907 -0.2994
C 0.0739 -0.3224
 0.0649 -0.3508
 0.0651 -0.3792
C 0.0654 -0.4077
 0.0747 -0.4358
 0.0906 -0.4594
C 0.1079 -0.4850
 0.1325 -0.5052
 0.1604 -0.5185
C 0.1882 -0.5318
 0.2192 -0.5383
 0.2500 -0.5381
C 0.3132 -0.5379
 0.3756 -0.5097
 0.4188 -0.4635
L 0.4188 -0.3650
L 0.3468 -0.3650
Z" fill="black" />
</svg>
