<svg xmlns="http://www.w3.org/2000/svg" viewBox="-0.2500 -1.0500 1.5000 1.5000">
  <path d="M 0.1345 -0.2461
C 0.1345 -0.2239
 0.1342 -0.2017
 0.1364 -0.1797
C 0.1386 -0.1576
 0.1435 -0.1355
 0.1541 -0.1160
C 0.1635 -0.0988
 0.1772 -0.0838
 0.1941 -0.0737
C 0.2109 -0.0636
 0.2307 -0.0585
 0.2503 -0.0589
C 0.2696 -0.0593
 0.2887 -0.0649
 0.3052 -0.0749
C 0.3216 -0.0849
 0.3355 -0.0991
 0.3456 -0.1155
C 0.3574 -0.1345
 0.3643 -0.1562
 0.3680 -0.1783
C 0.3718 -0.2004
 0.3727 -0.2228
 0.3727 -0.2452
C 0.3727 -0.2709
 0.3717 -0.2966
 0.3687 -0.3222
C 0.3657 -0.3477
 0.3604 -0.3732
 0.3499 -0.3967
C 0.3407 -0.4172
 0.3273 -0.4361
 0.3097 -0.4501
C 0.2920 -0.4640
 0.2700 -0.4727
 0.2475 -0.4734
C 0.2273 -0.4740
 0.2069 -0.4682
 0.1900 -0.4570
C 0.1732 -0.4459
 0.1600 -0.4295
 0.1513 -0.4112
C 0.1418 -0.3910
 0.1377 -0.3685
 0.1359 -0.3461
C 0.1342 -0.3238
 0.1345 -0.3013
 0.1345 -0.2789
L 0.1345 -0.2461
Z
M 0.0906 -0.0820
C 0.0774 -0.1068
 0.0699 -0.1343
 0.0662 -0.1621
C 0.0625 -0.1899
 0.0625 -0.2180
 0.0625 -0.2461
L 0.0625 -0.2789
C 0.0625 -0.3069
 0.0626 -0.3351
 0.0664 -0.3629
C 0.0701 -0.3907
 0.0776 -0.4181
 0.0906 -0.4430
C 0.1058 -0.4719
 0.1285 -0.4971
 0.1564 -0.5140
C 0.1844 -0.5309
 0.2173 -0.5394
 0.2500 -0.5381
C 0.2846 -0.5368
 0.3187 -0.5245
 0.3465 -0.5038
C 0.3743 -0.4831
 0.3956 -0.4543
 0.4094 -0.4225
C 0.4332 -0.3675
 0.4367 -0.3060
 0.4375 -0.2461
C 0.4379 -0.2181
 0.4373 -0.1899
 0.4335 -0.1622
C 0.4297 -0.1344
 0.4224 -0.1069
 0.4094 -0.0820
C 0.3943 -0.0532
 0.3713 -0.0284
 0.3432 -0.0118
C 0.3152 0.0048
 0.2826 0.0133
 0.2500 0.0131
C 0.2175 0.0130
 0.1850 0.0043
 0.1570 -0.0123
C 0.1291 -0.0288
 0.1060 -0.0534
 0.0906 -0.0820
Z
M 0.3655 -0.5250
L 0.4375 -0.5250
L 0.4375 0.2000
L 0.3655 0.2000
L 0.3655 -0.5250
Z" fill="black" />
</svg>
