<svg xmlns="http://www.w3.org/2000/svg" viewBox="-0.25000 -1.05000 1.50000 1.50000">
  <path d="M 0.36550 -0.24609
L 0.36550 -0.27891
C 0.36550 -0.30133
 0.36579 -0.32379
 0.36405 -0.34614
C 0.36232 -0.36850
 0.35822 -0.39095
 0.34866 -0.41124
C 0.34004 -0.42954
 0.32683 -0.44585
 0.30996 -0.45702
C 0.29308 -0.46819
 0.27272 -0.47402
 0.25249 -0.47337
C 0.23000 -0.47265
 0.20802 -0.46399
 0.19034 -0.45006
C 0.17267 -0.43614
 0.15927 -0.41723
 0.15008 -0.39669
C 0.13958 -0.37322
 0.13430 -0.34772
 0.13129 -0.32218
C 0.12828 -0.29665
 0.12727 -0.27090
 0.12729 -0.24519
C 0.12732 -0.22281
 0.12822 -0.20036
 0.13198 -0.17829
C 0.13574 -0.15623
 0.14261 -0.13448
 0.15440 -0.11546
C 0.16455 -0.09908
 0.17835 -0.08488
 0.19484 -0.07491
C 0.21134 -0.06494
 0.23044 -0.05926
 0.24970 -0.05887
C 0.26934 -0.05848
 0.28907 -0.06364
 0.30592 -0.07373
C 0.32276 -0.08381
 0.33654 -0.09876
 0.34590 -0.11602
C 0.35647 -0.13550
 0.36144 -0.15759
 0.36360 -0.17965
C 0.36576 -0.20171
 0.36550 -0.22393
 0.36550 -0.24609
Z
M 0.40937 -0.08203
C 0.39403 -0.05338
 0.37094 -0.02885
 0.34297 -0.01228
C 0.31501 0.00429
 0.28251 0.01299
 0.25000 0.01313
C 0.21743 0.01326
 0.18477 0.00477
 0.15675 -0.01182
C 0.12873 -0.02842
 0.10574 -0.05319
 0.09062 -0.08203
C 0.07761 -0.10686
 0.07030 -0.13438
 0.06650 -0.16216
C 0.06271 -0.18994
 0.06211 -0.21806
 0.06250 -0.24609
C 0.06334 -0.30600
 0.06680 -0.36749
 0.09063 -0.42246
C 0.10441 -0.45427
 0.12570 -0.48309
 0.15351 -0.50378
C 0.18131 -0.52448
 0.21536 -0.53679
 0.25000 -0.53812
C 0.28265 -0.53938
 0.31562 -0.53088
 0.34358 -0.51398
C 0.37155 -0.49708
 0.39424 -0.47193
 0.40937 -0.44297
C 0.42236 -0.41812
 0.42988 -0.39066
 0.43364 -0.36287
C 0.43740 -0.33508
 0.43750 -0.30695
 0.43750 -0.27891
L 0.43750 -0.24609
C 0.43750 -0.21804
 0.43748 -0.18989
 0.43380 -0.16208
C 0.43013 -0.13427
 0.42262 -0.10676
 0.40937 -0.08203
Z
M 0.13450 -0.52500
L 0.13450 0.20000
L 0.06250 0.20000
L 0.06250 -0.52500
L 0.13450 -0.52500
Z" fill="black" />
</svg>
