<svg xmlns="http://www.w3.org/2000/svg" viewBox="-0.25000 -1.05000 1.50000 1.50000">
  <path d="M 0.36339 -0.00000
L 0.36550 -0.35000
C 0.36559 -0.36508
 0.36521 -0.38032
 0.36134 -0.39489
C 0.35747 -0.40947
 0.35036 -0.42313
 0.34083 -0.43482
C 0.32996 -0.44817
 0.31603 -0.45904
 0.30032 -0.46608
C 0.28461 -0.47311
 0.26718 -0.47625
 0.25000 -0.47515
C 0.23291 -0.47406
 0.21616 -0.46880
 0.20123 -0.46041
C 0.18630 -0.45201
 0.17320 -0.44055
 0.16221 -0.42741
C 0.14853 -0.41105
 0.13805 -0.39202
 0.13152 -0.37172
L 0.07690 -0.39000
C 0.08587 -0.41679
 0.09972 -0.44193
 0.11758 -0.46382
C 0.15042 -0.50409
 0.19829 -0.53304
 0.25000 -0.53812
C 0.30270 -0.54331
 0.35728 -0.52267
 0.39344 -0.48398
C 0.40995 -0.46631
 0.42263 -0.44499
 0.42963 -0.42184
C 0.43663 -0.39869
 0.43750 -0.37419
 0.43750 -0.35000
L 0.43750 -0.00000
L 0.36339 -0.00000
Z
M 0.06250 -0.00000
L 0.06250 -0.70000
L 0.13450 -0.70000
L 0.13450 -0.00000
L 0.06250 -0.00000
Z" fill="black" />
</svg>
