<svg xmlns="http://www.w3.org/2000/svg" viewBox="-0.25000 -1.05000 1.50000 1.50000">
  <path d="M 0.28084 -0.52500
L 0.35800 -0.52500
L 0.35800 0.02500
C 0.35800 0.04889
 0.35741 0.07303
 0.35141 0.09615
C 0.34541 0.11928
 0.33421 0.14112
 0.31834 0.15898
C 0.30237 0.17696
 0.28196 0.19082
 0.25969 0.19989
C 0.23742 0.20896
 0.21330 0.21332
 0.18925 0.21313
C 0.14132 0.21273
 0.09313 0.19377
 0.06016 0.15898
C 0.04071 0.13847
 0.02687 0.11270
 0.02050 0.08516
L 0.09005 0.05038
C 0.09125 0.07142
 0.10029 0.09192
 0.11503 0.10698
C 0.13420 0.12657
 0.16185 0.13679
 0.18925 0.13752
C 0.20270 0.13788
 0.21626 0.13595
 0.22887 0.13128
C 0.24148 0.12660
 0.25315 0.11905
 0.26183 0.10877
C 0.27131 0.09753
 0.27688 0.08339
 0.27964 0.06895
C 0.28240 0.05451
 0.28244 0.03970
 0.28240 0.02500
L 0.28084 -0.52500
Z
M 0.32200 -0.45300
L 0.15200 -0.45300
L 0.15200 -0.52500
L 0.32200 -0.52500
L 0.32200 -0.45300
Z
M 0.25388 -0.67900
C 0.25387 -0.66264
 0.26061 -0.64638
 0.27218 -0.63481
C 0.28375 -0.62324
 0.30001 -0.61650
 0.31638 -0.61650
C 0.33274 -0.61650
 0.34900 -0.62324
 0.36057 -0.63481
C 0.37214 -0.64638
 0.37888 -0.66264
 0.37888 -0.67900
C 0.37887 -0.69536
 0.37214 -0.71162
 0.36057 -0.72319
C 0.34900 -0.73476
 0.33274 -0.74150
 0.31638 -0.74150
C 0.30001 -0.74150
 0.28375 -0.73476
 0.27218 -0.72319
C 0.26061 -0.71162
 0.25387 -0.69536
 0.25388 -0.67900
Z" fill="black" />
</svg>
