<svg xmlns="http://www.w3.org/2000/svg" viewBox="-0.2500 -1.0500 1.5000 1.5000">
  <path d="M 0.3728 -0.1622
L 0.4015 -0.1641
C 0.4045 -0.1182
 0.3876 -0.0713
 0.3558 -0.0380
C 0.3241 -0.0048
 0.2780 0.0144
 0.2320 0.0131
C 0.2017 0.0123
 0.1718 0.0027
 0.1466 -0.0141
C 0.1214 -0.0309
 0.1013 -0.0549
 0.0879 -0.0820
C 0.0756 -0.1071
 0.0689 -0.1347
 0.0657 -0.1624
C 0.0625 -0.1902
 0.0625 -0.2182
 0.0625 -0.2461
L 0.0625 -0.2789
C 0.0625 -0.3068
 0.0625 -0.3348
 0.0657 -0.3626
C 0.0689 -0.3903
 0.0756 -0.4179
 0.0879 -0.4430
C 0.1013 -0.4701
 0.1214 -0.4941
 0.1466 -0.5109
C 0.1718 -0.5277
 0.2017 -0.5373
 0.2320 -0.5381
C 0.2780 -0.5394
 0.3241 -0.5202
 0.3558 -0.4870
C 0.3876 -0.4537
 0.4045 -0.4068
 0.4015 -0.3609
L 0.3728 -0.3628
C 0.3708 -0.3962
 0.3542 -0.4285
 0.3281 -0.4494
C 0.3020 -0.4703
 0.2667 -0.4794
 0.2338 -0.4734
C 0.2164 -0.4701
 0.1998 -0.4628
 0.1858 -0.4520
C 0.1718 -0.4412
 0.1604 -0.4270
 0.1525 -0.4112
C 0.1425 -0.3911
 0.1380 -0.3686
 0.1361 -0.3463
C 0.1342 -0.3239
 0.1345 -0.3014
 0.1345 -0.2789
L 0.1345 -0.2461
C 0.1345 -0.2236
 0.1342 -0.2011
 0.1361 -0.1787
C 0.1380 -0.1564
 0.1425 -0.1339
 0.1525 -0.1138
C 0.1604 -0.0980
 0.1718 -0.0838
 0.1858 -0.0730
C 0.1998 -0.0622
 0.2164 -0.0549
 0.2338 -0.0516
C 0.2667 -0.0456
 0.3020 -0.0547
 0.3281 -0.0756
C 0.3542 -0.0965
 0.3708 -0.1288
 0.3728 -0.1622
Z
M 0.3655 -0.5250
L 0.4375 -0.5250
L 0.4375 0.2000
L 0.3655 0.2000
L 0.3655 -0.5250
Z" fill="black" />
</svg>
