<svg xmlns="http://www.w3.org/2000/svg" viewBox="-0.25000 -1.05000 1.50000 1.50000">
  <path d="M 0.45850 -0.44184
C 0.43789 -0.45495
 0.41384 -0.46254
 0.38945 -0.46385
C 0.36466 -0.46518
 0.33971 -0.46008
 0.31686 -0.45036
C 0.29401 -0.44065
 0.27322 -0.42650
 0.25460 -0.41007
C 0.19427 -0.35684
 0.15388 -0.28389
 0.12663 -0.20819
L 0.12663 -0.36094
C 0.14713 -0.39930
 0.17405 -0.43430
 0.20631 -0.46348
C 0.23171 -0.48645
 0.26056 -0.50580
 0.29212 -0.51910
C 0.32368 -0.53239
 0.35803 -0.53941
 0.39225 -0.53812
C 0.41484 -0.53727
 0.43730 -0.53285
 0.45850 -0.52500
L 0.45850 -0.44184
Z
M 0.09850 -0.00000
L 0.09850 -0.52500
L 0.17050 -0.52500
L 0.17050 -0.00000
L 0.09850 -0.00000
Z" fill="black" />
</svg>
