<svg xmlns="http://www.w3.org/2000/svg" viewBox="-0.25000 -1.05000 1.50000 1.50000">
  <path d="M 0.36550 -0.27891
C 0.36550 -0.30107
 0.36576 -0.32329
 0.36360 -0.34535
C 0.36144 -0.36741
 0.35647 -0.38950
 0.34590 -0.40898
C 0.33654 -0.42624
 0.32276 -0.44119
 0.30592 -0.45127
C 0.28907 -0.46136
 0.26934 -0.46652
 0.24970 -0.46613
C 0.23044 -0.46574
 0.21134 -0.46006
 0.19484 -0.45009
C 0.17835 -0.44012
 0.16455 -0.42592
 0.15440 -0.40954
C 0.14261 -0.39052
 0.13574 -0.36877
 0.13198 -0.34671
C 0.12822 -0.32464
 0.12732 -0.30219
 0.12729 -0.27981
C 0.12727 -0.25410
 0.12828 -0.22835
 0.13129 -0.20282
C 0.13430 -0.17728
 0.13958 -0.15178
 0.15008 -0.12831
C 0.15927 -0.10777
 0.17267 -0.08886
 0.19034 -0.07494
C 0.20802 -0.06101
 0.23000 -0.05235
 0.25249 -0.05163
C 0.27272 -0.05098
 0.29308 -0.05681
 0.30996 -0.06798
C 0.32683 -0.07915
 0.34004 -0.09546
 0.34866 -0.11376
C 0.35822 -0.13405
 0.36232 -0.15650
 0.36405 -0.17886
C 0.36579 -0.20121
 0.36550 -0.22367
 0.36550 -0.24609
L 0.36550 -0.27891
Z
M 0.40937 -0.44297
C 0.42262 -0.41824
 0.43013 -0.39073
 0.43380 -0.36292
C 0.43748 -0.33511
 0.43750 -0.30696
 0.43750 -0.27891
L 0.43750 -0.24609
C 0.43750 -0.21805
 0.43740 -0.18992
 0.43364 -0.16213
C 0.42988 -0.13434
 0.42236 -0.10688
 0.40937 -0.08203
C 0.39424 -0.05307
 0.37155 -0.02792
 0.34358 -0.01102
C 0.31562 0.00588
 0.28265 0.01438
 0.25000 0.01312
C 0.21536 0.01179
 0.18131 -0.00052
 0.15351 -0.02122
C 0.12570 -0.04191
 0.10441 -0.07073
 0.09063 -0.10254
C 0.06680 -0.15751
 0.06334 -0.21900
 0.06250 -0.27891
C 0.06211 -0.30694
 0.06271 -0.33506
 0.06650 -0.36284
C 0.07030 -0.39062
 0.07761 -0.41814
 0.09063 -0.44297
C 0.10574 -0.47181
 0.12873 -0.49658
 0.15675 -0.51318
C 0.18477 -0.52977
 0.21743 -0.53826
 0.25000 -0.53812
C 0.28251 -0.53799
 0.31501 -0.52929
 0.34297 -0.51272
C 0.37094 -0.49615
 0.39403 -0.47162
 0.40937 -0.44297
Z
M 0.13450 -0.00000
L 0.06250 -0.00000
L 0.06250 -0.70000
L 0.13450 -0.70000
L 0.13450 -0.00000
Z" fill="black" />
</svg>
