<svg xmlns="http://www.w3.org/2000/svg" viewBox="-0.2500 -1.0500 1.5000 1.5000">
  <path d="M 0.3863 -0.0000
L 0.3863 -0.3937
C 0.3863 -0.4033
 0.3866 -0.4129
 0.3859 -0.4225
C 0.3853 -0.4320
 0.3835 -0.4416
 0.3792 -0.4501
C 0.3736 -0.4610
 0.3636 -0.4694
 0.3520 -0.4734
C 0.3430 -0.4764
 0.3332 -0.4770
 0.3238 -0.4752
C 0.3144 -0.4734
 0.3055 -0.4694
 0.2978 -0.4636
C 0.2825 -0.4522
 0.2727 -0.4339
 0.2712 -0.4149
L 0.2214 -0.4225
C 0.2262 -0.4541
 0.2423 -0.4840
 0.2663 -0.5053
C 0.2902 -0.5266
 0.3221 -0.5392
 0.3542 -0.5381
C 0.3723 -0.5375
 0.3903 -0.5325
 0.4059 -0.5231
C 0.4214 -0.5137
 0.4342 -0.5000
 0.4427 -0.4840
C 0.4500 -0.4704
 0.4541 -0.4553
 0.4562 -0.4400
C 0.4583 -0.4247
 0.4583 -0.4092
 0.4583 -0.3937
L 0.4583 -0.0000
L 0.3863 -0.0000
Z
M 0.2140 -0.0000
L 0.2140 -0.3937
C 0.2140 -0.4033
 0.2142 -0.4129
 0.2136 -0.4225
C 0.2130 -0.4320
 0.2112 -0.4416
 0.2068 -0.4501
C 0.2012 -0.4610
 0.1913 -0.4694
 0.1797 -0.4734
C 0.1707 -0.4764
 0.1608 -0.4770
 0.1514 -0.4752
C 0.1421 -0.4734
 0.1331 -0.4694
 0.1255 -0.4636
C 0.1102 -0.4522
 0.1003 -0.4339
 0.0988 -0.4149
L 0.0490 -0.4225
C 0.0539 -0.4541
 0.0700 -0.4840
 0.0939 -0.5053
C 0.1179 -0.5266
 0.1498 -0.5392
 0.1818 -0.5381
C 0.2000 -0.5375
 0.2180 -0.5325
 0.2335 -0.5231
C 0.2491 -0.5137
 0.2619 -0.5000
 0.2704 -0.4840
C 0.2776 -0.4704
 0.2818 -0.4553
 0.2839 -0.4400
C 0.2860 -0.4247
 0.2860 -0.4092
 0.2860 -0.3937
L 0.2860 -0.0000
L 0.2140 -0.0000
Z
M 0.0417 -0.0000
L 0.0417 -0.5250
L 0.1137 -0.5250
L 0.1137 -0.0000
L 0.0417 -0.0000
Z" fill="black" />
</svg>
