<svg xmlns="http://www.w3.org/2000/svg" viewBox="-0.2500 -1.0500 1.5000 1.5000">
  <path d="M 0.4585 -0.4418
C 0.4379 -0.4549
 0.4138 -0.4625
 0.3895 -0.4639
C 0.3647 -0.4652
 0.3397 -0.4601
 0.3169 -0.4504
C 0.2940 -0.4406
 0.2732 -0.4265
 0.2546 -0.4101
C 0.1943 -0.3568
 0.1539 -0.2839
 0.1266 -0.2082
L 0.1266 -0.3609
C 0.1471 -0.3993
 0.1740 -0.4343
 0.2063 -0.4635
C 0.2317 -0.4864
 0.2606 -0.5058
 0.2921 -0.5191
C 0.3237 -0.5324
 0.3580 -0.5394
 0.3922 -0.5381
C 0.4148 -0.5373
 0.4373 -0.5328
 0.4585 -0.5250
L 0.4585 -0.4418
Z
M 0.0985 -0.0000
L 0.0985 -0.5250
L 0.1705 -0.5250
L 0.1705 -0.0000
L 0.0985 -0.0000
Z" fill="black" />
</svg>
