<svg xmlns="http://www.w3.org/2000/svg" viewBox="-0.2500 -1.0500 1.5000 1.5000">
  <path d="M 0.3655 -0.2625
L 0.3655 -0.2789
C 0.3655 -0.3017
 0.3665 -0.3246
 0.3663 -0.3474
C 0.3660 -0.3702
 0.3634 -0.3936
 0.3529 -0.4139
C 0.3438 -0.4314
 0.3290 -0.4458
 0.3114 -0.4547
C 0.2937 -0.4635
 0.2737 -0.4671
 0.2540 -0.4662
C 0.2338 -0.4654
 0.2138 -0.4600
 0.1962 -0.4502
C 0.1786 -0.4403
 0.1637 -0.4257
 0.1537 -0.4082
C 0.1427 -0.3890
 0.1378 -0.3670
 0.1359 -0.3450
C 0.1340 -0.3230
 0.1345 -0.3010
 0.1345 -0.2789
L 0.1345 -0.2461
C 0.1345 -0.2240
 0.1341 -0.2019
 0.1360 -0.1799
C 0.1379 -0.1579
 0.1428 -0.1358
 0.1538 -0.1166
C 0.1638 -0.0990
 0.1788 -0.0844
 0.1966 -0.0747
C 0.2143 -0.0649
 0.2344 -0.0600
 0.2546 -0.0587
C 0.3046 -0.0557
 0.3546 -0.0730
 0.3958 -0.1014
L 0.4375 -0.0427
C 0.3833 -0.0042
 0.3163 0.0174
 0.2500 0.0131
C 0.2177 0.0111
 0.1857 0.0025
 0.1577 -0.0136
C 0.1296 -0.0298
 0.1062 -0.0537
 0.0906 -0.0820
C 0.0771 -0.1066
 0.0696 -0.1342
 0.0660 -0.1620
C 0.0625 -0.1899
 0.0625 -0.2180
 0.0625 -0.2461
L 0.0625 -0.2789
C 0.0625 -0.3070
 0.0624 -0.3351
 0.0660 -0.3630
C 0.0696 -0.3908
 0.0771 -0.4184
 0.0906 -0.4430
C 0.1062 -0.4713
 0.1298 -0.4950
 0.1578 -0.5112
C 0.1858 -0.5274
 0.2177 -0.5363
 0.2500 -0.5381
C 0.2844 -0.5400
 0.3195 -0.5337
 0.3499 -0.5174
C 0.3803 -0.5011
 0.4048 -0.4745
 0.4188 -0.4430
C 0.4300 -0.4176
 0.4345 -0.3898
 0.4362 -0.3621
C 0.4380 -0.3344
 0.4375 -0.3066
 0.4375 -0.2789
L 0.4375 -0.2625
L 0.3655 -0.2625
Z
M 0.0625 -0.2985
L 0.4375 -0.2985
L 0.4375 -0.2265
L 0.0625 -0.2265
L 0.0625 -0.2985
Z" fill="black" />
</svg>
