<svg xmlns="http://www.w3.org/2000/svg" viewBox="-0.25000 -1.05000 1.50000 1.50000">
  <path d="M 0.21922 -0.00000
L 0.14200 -0.00000
L 0.14200 -0.52500
C 0.14200 -0.54889
 0.14259 -0.57303
 0.14859 -0.59615
C 0.15459 -0.61928
 0.16579 -0.64112
 0.18166 -0.65898
C 0.19763 -0.67696
 0.21804 -0.69082
 0.24031 -0.69989
C 0.26258 -0.70896
 0.28670 -0.71332
 0.31075 -0.71313
C 0.35868 -0.71273
 0.40687 -0.69377
 0.43984 -0.65898
C 0.45929 -0.63847
 0.47313 -0.61270
 0.47950 -0.58516
L 0.40995 -0.55038
C 0.40875 -0.57142
 0.39971 -0.59192
 0.38497 -0.60698
C 0.36580 -0.62657
 0.33815 -0.63679
 0.31075 -0.63752
C 0.29730 -0.63788
 0.28374 -0.63595
 0.27113 -0.63127
C 0.25852 -0.62659
 0.24685 -0.61905
 0.23817 -0.60877
C 0.22869 -0.59754
 0.22311 -0.58339
 0.22035 -0.56895
C 0.21759 -0.55451
 0.21755 -0.53970
 0.21760 -0.52500
L 0.21922 -0.00000
Z
M 0.04675 -0.46020
L 0.42800 -0.46020
L 0.42800 -0.38820
L 0.04675 -0.38820
L 0.04675 -0.46020
Z" fill="black" />
</svg>
