<svg xmlns="http://www.w3.org/2000/svg" viewBox="-0.25000 -1.05000 1.50000 1.50000">
  <path d="M 0.13661 -0.52500
L 0.13450 -0.17500
C 0.13441 -0.15992
 0.13479 -0.14468
 0.13866 -0.13011
C 0.14253 -0.11553
 0.14964 -0.10187
 0.15917 -0.09018
C 0.17004 -0.07683
 0.18397 -0.06596
 0.19968 -0.05892
C 0.21539 -0.05189
 0.23282 -0.04875
 0.25000 -0.04985
C 0.26709 -0.05094
 0.28384 -0.05620
 0.29877 -0.06459
C 0.31370 -0.07299
 0.32680 -0.08445
 0.33779 -0.09759
C 0.35147 -0.11395
 0.36195 -0.13298
 0.36848 -0.15328
L 0.42310 -0.13500
C 0.41413 -0.10821
 0.40028 -0.08307
 0.38242 -0.06118
C 0.34958 -0.02091
 0.30171 0.00804
 0.25000 0.01313
C 0.19730 0.01831
 0.14272 -0.00233
 0.10656 -0.04102
C 0.09005 -0.05869
 0.07737 -0.08001
 0.07037 -0.10316
C 0.06337 -0.12631
 0.06250 -0.15081
 0.06250 -0.17500
L 0.06250 -0.52500
L 0.13661 -0.52500
Z
M 0.43750 -0.52500
L 0.43750 -0.00000
L 0.36550 -0.00000
L 0.36550 -0.52500
L 0.43750 -0.52500
Z" fill="black" />
</svg>
