<svg xmlns="http://www.w3.org/2000/svg" viewBox="-0.25000 -1.05000 1.50000 1.50000">
  <path d="M 0.34392 -0.56064
C 0.33564 -0.58096
 0.32481 -0.60065
 0.30901 -0.61587
C 0.29321 -0.63109
 0.27194 -0.64113
 0.25000 -0.64113
C 0.22806 -0.64113
 0.20679 -0.63109
 0.19099 -0.61587
C 0.17519 -0.60065
 0.16436 -0.58096
 0.15608 -0.56064
C 0.13188 -0.50120
 0.12512 -0.43605
 0.12512 -0.37187
L 0.12512 -0.32812
C 0.12512 -0.26395
 0.13188 -0.19880
 0.15608 -0.13936
C 0.16436 -0.11904
 0.17519 -0.09935
 0.19099 -0.08413
C 0.20679 -0.06891
 0.22806 -0.05887
 0.25000 -0.05887
C 0.27194 -0.05887
 0.29321 -0.06891
 0.30901 -0.08413
C 0.32481 -0.09935
 0.33564 -0.11904
 0.34392 -0.13936
C 0.36812 -0.19880
 0.37488 -0.26395
 0.37488 -0.32812
L 0.37488 -0.37187
C 0.37488 -0.43605
 0.36812 -0.50120
 0.34392 -0.56064
Z
M 0.44688 -0.37187
L 0.44688 -0.32812
C 0.44688 -0.25351
 0.44045 -0.17721
 0.40937 -0.10938
C 0.39461 -0.07714
 0.37452 -0.04681
 0.34735 -0.02402
C 0.32019 -0.00123
 0.28546 0.01313
 0.25000 0.01312
C 0.21454 0.01312
 0.17981 -0.00123
 0.15265 -0.02402
C 0.12548 -0.04681
 0.10539 -0.07714
 0.09063 -0.10938
C 0.05955 -0.17721
 0.05312 -0.25351
 0.05312 -0.32812
L 0.05312 -0.37187
C 0.05313 -0.44649
 0.05955 -0.52279
 0.09063 -0.59062
C 0.10539 -0.62286
 0.12548 -0.65319
 0.15265 -0.67598
C 0.17981 -0.69877
 0.21454 -0.71313
 0.25000 -0.71313
C 0.28546 -0.71313
 0.32019 -0.69877
 0.34735 -0.67598
C 0.37452 -0.65319
 0.39461 -0.62286
 0.40937 -0.59062
C 0.44045 -0.52279
 0.44688 -0.44649
 0.44688 -0.37187
Z" fill="black" />
</svg>
