<svg xmlns="http://www.w3.org/2000/svg" viewBox="-0.25000 -1.05000 1.50000 1.50000">
  <path d="M 0.32995 -0.70000
L 0.41088 -0.70000
L 0.41088 -0.17500
C 0.41087 -0.15061
 0.41000 -0.12588
 0.40270 -0.10261
C 0.39539 -0.07933
 0.38209 -0.05803
 0.36461 -0.04102
C 0.34501 -0.02195
 0.32060 -0.00818
 0.29469 0.00058
C 0.26879 0.00934
 0.24134 0.01328
 0.21400 0.01313
C 0.18672 0.01297
 0.15940 0.00873
 0.13358 -0.00008
C 0.10775 -0.00889
 0.08338 -0.02244
 0.06339 -0.04102
C 0.04187 -0.06102
 0.02574 -0.08676
 0.01712 -0.11484
L 0.08895 -0.15076
C 0.09245 -0.13105
 0.10257 -0.11258
 0.11731 -0.09903
C 0.13010 -0.08726
 0.14604 -0.07927
 0.16264 -0.07414
C 0.17925 -0.06901
 0.19662 -0.06654
 0.21400 -0.06608
C 0.23125 -0.06562
 0.24866 -0.06716
 0.26525 -0.07194
C 0.28183 -0.07673
 0.29771 -0.08505
 0.30938 -0.09778
C 0.31867 -0.10792
 0.32494 -0.12064
 0.32822 -0.13400
C 0.33150 -0.14735
 0.33172 -0.16125
 0.33168 -0.17500
L 0.32995 -0.70000
Z
M 0.15775 -0.70000
L 0.40150 -0.70000
L 0.40150 -0.62800
L 0.15775 -0.62800
L 0.15775 -0.70000
Z" fill="black" />
</svg>
