<svg xmlns="http://www.w3.org/2000/svg" viewBox="-0.25000 -1.05000 1.50000 1.50000">
  <path d="M 0.21922 -0.70000
L 0.21760 -0.17500
C 0.21755 -0.16030
 0.21759 -0.14549
 0.22035 -0.13105
C 0.22311 -0.11661
 0.22869 -0.10246
 0.23817 -0.09123
C 0.24685 -0.08095
 0.25852 -0.07341
 0.27113 -0.06873
C 0.28374 -0.06405
 0.29730 -0.06212
 0.31075 -0.06248
C 0.33815 -0.06321
 0.36580 -0.07343
 0.38497 -0.09302
C 0.39971 -0.10808
 0.40875 -0.12858
 0.40995 -0.14962
L 0.47950 -0.11484
C 0.47313 -0.08730
 0.45929 -0.06153
 0.43984 -0.04102
C 0.40687 -0.00623
 0.35868 0.01273
 0.31075 0.01313
C 0.28670 0.01332
 0.26258 0.00896
 0.24031 -0.00011
C 0.21804 -0.00918
 0.19763 -0.02304
 0.18166 -0.04102
C 0.16579 -0.05888
 0.15459 -0.08072
 0.14859 -0.10385
C 0.14259 -0.12697
 0.14200 -0.15111
 0.14200 -0.17500
L 0.14200 -0.70000
L 0.21922 -0.70000
Z
M 0.02800 -0.52500
L 0.42800 -0.52500
L 0.42800 -0.45300
L 0.02800 -0.45300
L 0.02800 -0.52500
Z" fill="black" />
</svg>
