<svg xmlns="http://www.w3.org/2000/svg" viewBox="-0.25000 -1.05000 1.50000 1.50000">
  <path d="M 0.13450 -0.24609
C 0.13450 -0.22393
 0.13424 -0.20171
 0.13640 -0.17965
C 0.13856 -0.15759
 0.14353 -0.13550
 0.15410 -0.11602
C 0.16346 -0.09876
 0.17724 -0.08381
 0.19408 -0.07373
C 0.21093 -0.06364
 0.23066 -0.05848
 0.25030 -0.05887
C 0.26956 -0.05926
 0.28866 -0.06494
 0.30516 -0.07491
C 0.32165 -0.08488
 0.33545 -0.09908
 0.34560 -0.11546
C 0.35739 -0.13448
 0.36426 -0.15623
 0.36802 -0.17829
C 0.37178 -0.20036
 0.37268 -0.22281
 0.37271 -0.24519
C 0.37273 -0.27090
 0.37172 -0.29665
 0.36871 -0.32218
C 0.36570 -0.34772
 0.36042 -0.37322
 0.34992 -0.39669
C 0.34073 -0.41723
 0.32733 -0.43614
 0.30966 -0.45006
C 0.29198 -0.46399
 0.27000 -0.47265
 0.24751 -0.47337
C 0.22728 -0.47402
 0.20692 -0.46819
 0.19004 -0.45702
C 0.17317 -0.44585
 0.15996 -0.42954
 0.15134 -0.41124
C 0.14178 -0.39095
 0.13768 -0.36850
 0.13595 -0.34614
C 0.13421 -0.32379
 0.13450 -0.30133
 0.13450 -0.27891
L 0.13450 -0.24609
Z
M 0.09063 -0.08203
C 0.07738 -0.10676
 0.06987 -0.13427
 0.06620 -0.16208
C 0.06252 -0.18989
 0.06250 -0.21804
 0.06250 -0.24609
L 0.06250 -0.27891
C 0.06250 -0.30695
 0.06260 -0.33508
 0.06636 -0.36287
C 0.07012 -0.39066
 0.07764 -0.41812
 0.09063 -0.44297
C 0.10576 -0.47193
 0.12845 -0.49708
 0.15642 -0.51398
C 0.18438 -0.53088
 0.21735 -0.53938
 0.25000 -0.53812
C 0.28464 -0.53679
 0.31869 -0.52448
 0.34649 -0.50378
C 0.37430 -0.48309
 0.39559 -0.45427
 0.40937 -0.42246
C 0.43320 -0.36749
 0.43666 -0.30600
 0.43750 -0.24609
C 0.43789 -0.21806
 0.43729 -0.18994
 0.43350 -0.16216
C 0.42970 -0.13438
 0.42239 -0.10686
 0.40937 -0.08203
C 0.39426 -0.05319
 0.37127 -0.02842
 0.34325 -0.01182
C 0.31523 0.00477
 0.28257 0.01326
 0.25000 0.01313
C 0.21749 0.01299
 0.18499 0.00429
 0.15703 -0.01228
C 0.12906 -0.02885
 0.10597 -0.05338
 0.09063 -0.08203
Z
M 0.36550 -0.52500
L 0.43750 -0.52500
L 0.43750 0.20000
L 0.36550 0.20000
L 0.36550 -0.52500
Z" fill="black" />
</svg>
