<svg xmlns="http://www.w3.org/2000/svg" viewBox="-0.2500 -1.0500 1.5000 1.5000">
  <path d="M 0.3655 -0.2461
L 0.3655 -0.2789
C 0.3655 -0.3013
 0.3658 -0.3238
 0.3641 -0.3461
C 0.3623 -0.3685
 0.3582 -0.3910
 0.3487 -0.4112
C 0.3400 -0.4295
 0.3268 -0.4459
 0.3100 -0.4570
C 0.2931 -0.4682
 0.2727 -0.4740
 0.2525 -0.4734
C 0.2300 -0.4727
 0.2080 -0.4640
 0.1903 -0.4501
C 0.1727 -0.4361
 0.1593 -0.4172
 0.1501 -0.3967
C 0.1396 -0.3732
 0.1343 -0.3477
 0.1313 -0.3222
C 0.1283 -0.2966
 0.1273 -0.2709
 0.1273 -0.2452
C 0.1273 -0.2228
 0.1282 -0.2004
 0.1320 -0.1783
C 0.1357 -0.1562
 0.1426 -0.1345
 0.1544 -0.1155
C 0.1645 -0.0991
 0.1784 -0.0849
 0.1948 -0.0749
C 0.2113 -0.0649
 0.2304 -0.0593
 0.2497 -0.0589
C 0.2693 -0.0585
 0.2891 -0.0636
 0.3059 -0.0737
C 0.3228 -0.0838
 0.3365 -0.0988
 0.3459 -0.1160
C 0.3565 -0.1355
 0.3614 -0.1576
 0.3636 -0.1797
C 0.3658 -0.2017
 0.3655 -0.2239
 0.3655 -0.2461
Z
M 0.4094 -0.0820
C 0.3940 -0.0534
 0.3709 -0.0288
 0.3430 -0.0123
C 0.3150 0.0043
 0.2825 0.0130
 0.2500 0.0131
C 0.2174 0.0133
 0.1848 0.0048
 0.1568 -0.0118
C 0.1287 -0.0284
 0.1057 -0.0532
 0.0906 -0.0820
C 0.0776 -0.1069
 0.0703 -0.1344
 0.0665 -0.1622
C 0.0627 -0.1899
 0.0621 -0.2181
 0.0625 -0.2461
C 0.0633 -0.3060
 0.0668 -0.3675
 0.0906 -0.4225
C 0.1044 -0.4543
 0.1257 -0.4831
 0.1535 -0.5038
C 0.1813 -0.5245
 0.2154 -0.5368
 0.2500 -0.5381
C 0.2827 -0.5394
 0.3156 -0.5309
 0.3436 -0.5140
C 0.3715 -0.4971
 0.3942 -0.4719
 0.4094 -0.4430
C 0.4224 -0.4181
 0.4299 -0.3907
 0.4336 -0.3629
C 0.4374 -0.3351
 0.4375 -0.3069
 0.4375 -0.2789
L 0.4375 -0.2461
C 0.4375 -0.2180
 0.4375 -0.1899
 0.4338 -0.1621
C 0.4301 -0.1343
 0.4226 -0.1068
 0.4094 -0.0820
Z
M 0.1345 -0.5250
L 0.1345 0.2000
L 0.0625 0.2000
L 0.0625 -0.5250
L 0.1345 -0.5250
Z" fill="black" />
</svg>
