<svg xmlns="http://www.w3.org/2000/svg" viewBox="-0.2500 -1.0500 1.5000 1.5000">
  <path d="M 0.0625 -0.7000
L 0.1795 -0.7000
C 0.2179 -0.7000
 0.2568 -0.6997
 0.2937 -0.6895
C 0.3307 -0.6792
 0.3654 -0.6579
 0.3872 -0.6264
C 0.3978 -0.6111
 0.4052 -0.5936
 0.4091 -0.5754
C 0.4131 -0.5572
 0.4135 -0.5385
 0.4135 -0.5199
L 0.4135 -0.5106
C 0.4135 -0.4920
 0.4131 -0.4733
 0.4091 -0.4551
C 0.4052 -0.4369
 0.3978 -0.4194
 0.3872 -0.4041
C 0.3654 -0.3726
 0.3307 -0.3513
 0.2937 -0.3410
C 0.2568 -0.3308
 0.2179 -0.3305
 0.1795 -0.3305
L 0.0625 -0.3305
L 0.0625 -0.4025
L 0.1795 -0.4025
C 0.2065 -0.4025
 0.2338 -0.4009
 0.2605 -0.4050
C 0.2739 -0.4070
 0.2871 -0.4108
 0.2989 -0.4174
C 0.3107 -0.4241
 0.3209 -0.4336
 0.3280 -0.4451
C 0.3339 -0.4547
 0.3376 -0.4656
 0.3395 -0.4768
C 0.3414 -0.4879
 0.3415 -0.4993
 0.3415 -0.5106
L 0.3415 -0.5199
C 0.3415 -0.5312
 0.3414 -0.5426
 0.3395 -0.5537
C 0.3376 -0.5649
 0.3339 -0.5758
 0.3280 -0.5854
C 0.3209 -0.5969
 0.3107 -0.6064
 0.2989 -0.6131
C 0.2871 -0.6197
 0.2739 -0.6235
 0.2605 -0.6255
C 0.2338 -0.6296
 0.2065 -0.6280
 0.1795 -0.6280
L 0.0625 -0.6280
L 0.0625 -0.7000
Z
M 0.0625 -0.0000
L 0.0625 -0.0720
L 0.1875 -0.0720
C 0.2172 -0.0720
 0.2471 -0.0705
 0.2763 -0.0756
C 0.2909 -0.0781
 0.3053 -0.0826
 0.3181 -0.0901
C 0.3309 -0.0976
 0.3420 -0.1081
 0.3498 -0.1207
C 0.3567 -0.1317
 0.3610 -0.1443
 0.3632 -0.1572
C 0.3654 -0.1701
 0.3655 -0.1832
 0.3655 -0.1962
L 0.3655 -0.2063
C 0.3655 -0.2193
 0.3654 -0.2324
 0.3632 -0.2453
C 0.3610 -0.2582
 0.3567 -0.2708
 0.3498 -0.2818
C 0.3420 -0.2944
 0.3309 -0.3049
 0.3181 -0.3124
C 0.3053 -0.3199
 0.2909 -0.3244
 0.2763 -0.3269
C 0.2471 -0.3320
 0.2172 -0.3305
 0.1875 -0.3305
L 0.0625 -0.3305
L 0.0625 -0.4025
L 0.1875 -0.4025
C 0.2286 -0.4025
 0.2703 -0.4022
 0.3099 -0.3908
C 0.3494 -0.3795
 0.3863 -0.3563
 0.4094 -0.3223
C 0.4208 -0.3056
 0.4287 -0.2865
 0.4329 -0.2667
C 0.4371 -0.2469
 0.4375 -0.2265
 0.4375 -0.2063
L 0.4375 -0.1962
C 0.4375 -0.1760
 0.4371 -0.1556
 0.4329 -0.1358
C 0.4287 -0.1160
 0.4208 -0.0969
 0.4094 -0.0802
C 0.3863 -0.0462
 0.3494 -0.0230
 0.3099 -0.0117
C 0.2703 -0.0003
 0.2286 -0.0000
 0.1875 -0.0000
L 0.0625 -0.0000
Z
M 0.0625 -0.7000
L 0.1345 -0.7000
L 0.1345 -0.0000
L 0.0625 -0.0000
L 0.0625 -0.7000
Z" fill="black" />
</svg>
