<svg xmlns="http://www.w3.org/2000/svg" viewBox="-0.25000 -1.05000 1.50000 1.50000">
  <path d="M 0.34586 -0.40905
C 0.33644 -0.42615
 0.32260 -0.44087
 0.30582 -0.45086
C 0.28905 -0.46085
 0.26953 -0.46612
 0.25000 -0.46612
C 0.23047 -0.46612
 0.21095 -0.46085
 0.19418 -0.45086
C 0.17740 -0.44087
 0.16356 -0.42615
 0.15414 -0.40905
C 0.14343 -0.38962
 0.13843 -0.36750
 0.13631 -0.34541
C 0.13419 -0.32333
 0.13450 -0.30109
 0.13450 -0.27891
L 0.13450 -0.24609
C 0.13450 -0.22391
 0.13419 -0.20167
 0.13631 -0.17959
C 0.13843 -0.15750
 0.14343 -0.13538
 0.15414 -0.11595
C 0.16356 -0.09885
 0.17740 -0.08413
 0.19418 -0.07414
C 0.21095 -0.06415
 0.23047 -0.05887
 0.25000 -0.05887
C 0.26953 -0.05888
 0.28905 -0.06415
 0.30582 -0.07414
C 0.32260 -0.08413
 0.33644 -0.09885
 0.34586 -0.11595
C 0.35657 -0.13538
 0.36157 -0.15750
 0.36369 -0.17959
C 0.36581 -0.20167
 0.36550 -0.22391
 0.36550 -0.24609
L 0.36550 -0.27891
C 0.36550 -0.30109
 0.36581 -0.32333
 0.36369 -0.34541
C 0.36157 -0.36750
 0.35657 -0.38962
 0.34586 -0.40905
Z
M 0.43750 -0.27891
L 0.43750 -0.24609
C 0.43750 -0.21804
 0.43747 -0.18990
 0.43378 -0.16209
C 0.43010 -0.13428
 0.42259 -0.10678
 0.40937 -0.08203
C 0.39405 -0.05334
 0.37101 -0.02875
 0.34304 -0.01214
C 0.31507 0.00446
 0.28252 0.01312
 0.25000 0.01312
C 0.21748 0.01312
 0.18493 0.00446
 0.15696 -0.01214
C 0.12899 -0.02875
 0.10595 -0.05334
 0.09063 -0.08203
C 0.07741 -0.10678
 0.06990 -0.13428
 0.06622 -0.16209
C 0.06253 -0.18990
 0.06250 -0.21804
 0.06250 -0.24609
L 0.06250 -0.27891
C 0.06250 -0.30696
 0.06253 -0.33510
 0.06622 -0.36291
C 0.06990 -0.39072
 0.07741 -0.41822
 0.09063 -0.44297
C 0.10595 -0.47166
 0.12899 -0.49625
 0.15696 -0.51286
C 0.18493 -0.52946
 0.21748 -0.53812
 0.25000 -0.53812
C 0.28252 -0.53812
 0.31507 -0.52946
 0.34304 -0.51286
C 0.37101 -0.49625
 0.39405 -0.47166
 0.40937 -0.44297
C 0.42259 -0.41822
 0.43010 -0.39072
 0.43378 -0.36291
C 0.43747 -0.33510
 0.43750 -0.30696
 0.43750 -0.27891
Z" fill="black" />
</svg>
