<svg xmlns="http://www.w3.org/2000/svg" viewBox="-0.2500 -1.0500 1.5000 1.5000">
  <path d="M 0.2500 -0.4530
L 0.0906 -0.4530
L 0.0906 -0.5250
L 0.2500 -0.5250
L 0.2500 -0.4530
Z
M 0.2140 -0.0000
L 0.2140 -0.5250
L 0.2860 -0.5250
L 0.2860 -0.0000
L 0.2140 -0.0000
Z
M 0.0625 -0.0720
L 0.4375 -0.0720
L 0.4375 -0.0000
L 0.0625 -0.0000
L 0.0625 -0.0720
Z
M 0.1819 -0.6790
C 0.1819 -0.6626
 0.1886 -0.6464
 0.2002 -0.6348
C 0.2118 -0.6232
 0.2280 -0.6165
 0.2444 -0.6165
C 0.2607 -0.6165
 0.2770 -0.6232
 0.2886 -0.6348
C 0.3001 -0.6464
 0.3069 -0.6626
 0.3069 -0.6790
C 0.3069 -0.6954
 0.3001 -0.7116
 0.2886 -0.7232
C 0.2770 -0.7348
 0.2607 -0.7415
 0.2444 -0.7415
C 0.2280 -0.7415
 0.2118 -0.7348
 0.2002 -0.7232
C 0.1886 -0.7116
 0.1819 -0.6954
 0.1819 -0.6790
Z" fill="black" />
</svg>
