<svg xmlns="http://www.w3.org/2000/svg" viewBox="-0.2500 -1.0500 1.5000 1.5000">
  <path d="M 0.3655 -0.2789
C 0.3655 -0.3011
 0.3658 -0.3233
 0.3636 -0.3453
C 0.3614 -0.3674
 0.3565 -0.3895
 0.3459 -0.4090
C 0.3365 -0.4262
 0.3228 -0.4412
 0.3059 -0.4513
C 0.2891 -0.4614
 0.2693 -0.4665
 0.2497 -0.4661
C 0.2304 -0.4657
 0.2113 -0.4601
 0.1948 -0.4501
C 0.1784 -0.4401
 0.1645 -0.4259
 0.1544 -0.4095
C 0.1426 -0.3905
 0.1357 -0.3688
 0.1320 -0.3467
C 0.1282 -0.3246
 0.1273 -0.3022
 0.1273 -0.2798
C 0.1273 -0.2541
 0.1283 -0.2284
 0.1313 -0.2028
C 0.1343 -0.1773
 0.1396 -0.1518
 0.1501 -0.1283
C 0.1593 -0.1078
 0.1727 -0.0889
 0.1903 -0.0749
C 0.2080 -0.0610
 0.2300 -0.0523
 0.2525 -0.0516
C 0.2727 -0.0510
 0.2931 -0.0568
 0.3100 -0.0680
C 0.3268 -0.0791
 0.3400 -0.0955
 0.3487 -0.1138
C 0.3582 -0.1340
 0.3623 -0.1565
 0.3641 -0.1789
C 0.3658 -0.2012
 0.3655 -0.2237
 0.3655 -0.2461
L 0.3655 -0.2789
Z
M 0.4094 -0.4430
C 0.4226 -0.4182
 0.4301 -0.3907
 0.4338 -0.3629
C 0.4375 -0.3351
 0.4375 -0.3070
 0.4375 -0.2789
L 0.4375 -0.2461
C 0.4375 -0.2181
 0.4374 -0.1899
 0.4336 -0.1621
C 0.4299 -0.1343
 0.4224 -0.1069
 0.4094 -0.0820
C 0.3942 -0.0531
 0.3715 -0.0279
 0.3436 -0.0110
C 0.3156 0.0059
 0.2827 0.0144
 0.2500 0.0131
C 0.2154 0.0118
 0.1813 -0.0005
 0.1535 -0.0212
C 0.1257 -0.0419
 0.1044 -0.0707
 0.0906 -0.1025
C 0.0668 -0.1575
 0.0633 -0.2190
 0.0625 -0.2789
C 0.0621 -0.3069
 0.0627 -0.3351
 0.0665 -0.3628
C 0.0703 -0.3906
 0.0776 -0.4181
 0.0906 -0.4430
C 0.1057 -0.4718
 0.1287 -0.4966
 0.1568 -0.5132
C 0.1848 -0.5298
 0.2174 -0.5383
 0.2500 -0.5381
C 0.2825 -0.5380
 0.3150 -0.5293
 0.3430 -0.5127
C 0.3709 -0.4962
 0.3940 -0.4716
 0.4094 -0.4430
Z
M 0.1345 -0.0000
L 0.0625 -0.0000
L 0.0625 -0.7000
L 0.1345 -0.7000
L 0.1345 -0.0000
Z" fill="black" />
</svg>
